if (_typeface_js && _typeface_js.loadFace) _typeface_js.loadFace({"glyphs":{"¦":{"x_min":253,"x_max":444,"ha":694,"o":"m 444 277 l 444 -237 l 253 -237 l 253 277 l 444 277 m 444 971 l 444 457 l 253 457 l 253 971 l 444 971 "},"Ž":{"x_min":35,"x_max":1151,"ha":1185,"o":"m 35 0 l 35 222 l 623 751 l 70 751 l 70 1003 l 1151 1003 l 1151 775 l 566 264 l 1131 264 l 1131 0 l 35 0 m 394 1105 l 181 1318 l 524 1318 l 593 1218 l 662 1318 l 1006 1318 l 785 1105 l 394 1105 "},"Á":{"x_min":-40,"x_max":1293,"ha":1254,"o":"m 503 346 l 752 346 l 631 698 l 503 346 m -40 0 l 394 1003 l 887 1003 l 1293 0 l 871 0 l 838 98 l 412 98 l 376 0 l -40 0 m 464 1105 l 591 1318 l 1000 1318 l 794 1105 l 464 1105 "},"Î":{"x_min":-108,"x_max":717,"ha":607,"o":"m 110 0 l 110 1003 l 499 1003 l 499 0 l 110 0 m 503 1317 l 717 1104 l 373 1104 l 304 1204 l 235 1104 l -108 1104 l 112 1317 l 503 1317 "},"e":{"x_min":41,"x_max":1165,"ha":1204,"o":"m 396 474 l 808 474 q 749 573 800 538 q 613 609 698 609 q 465 574 521 609 q 396 474 409 539 m 1158 237 q 975 40 1118 107 q 594 -26 832 -26 q 185 82 329 -26 q 41 388 41 190 q 185 695 41 587 q 594 804 329 804 q 1020 681 875 804 q 1165 321 1165 559 l 1165 308 l 413 308 q 465 211 413 245 q 614 177 518 177 q 719 192 677 177 q 780 237 761 207 l 1158 237 "},"»":{"x_min":96,"x_max":856,"ha":946,"o":"m 856 295 l 514 26 l 514 308 l 623 388 l 514 468 l 514 751 l 856 481 l 856 295 m 437 295 l 96 26 l 96 308 l 205 388 l 96 468 l 96 751 l 437 481 l 437 295 "},"∆":{"x_min":-4,"x_max":1023,"ha":1021,"o":"m 649 210 l 509 687 l 369 210 l 649 210 m 671 999 l 1023 0 l -4 0 l 347 999 l 671 999 "},"ò":{"x_min":41,"x_max":1134,"ha":1177,"o":"m 408 388 q 456 261 408 308 q 587 214 504 214 q 717 261 669 214 q 766 388 766 308 q 717 515 766 468 q 587 563 669 563 q 456 515 504 563 q 408 388 408 468 m 41 388 q 184 695 41 586 q 588 804 327 804 q 991 695 849 804 q 1134 388 1134 587 q 991 82 1134 190 q 588 -26 849 -26 q 184 82 327 -26 q 41 388 41 190 m 434 880 l 229 1093 l 637 1093 l 765 880 l 434 880 "},"^":{"x_min":279,"x_max":1108,"ha":1389,"o":"m 808 991 l 1108 608 l 902 608 l 694 817 l 484 608 l 279 608 l 578 991 l 808 991 "},"«":{"x_min":89,"x_max":850,"ha":946,"o":"m 89 481 l 432 751 l 432 468 l 322 388 l 432 308 l 432 26 l 89 295 l 89 481 m 507 481 l 850 751 l 850 468 l 740 388 l 850 308 l 850 26 l 507 295 l 507 481 "},"∙":{"x_min":136,"x_max":527,"ha":664,"o":"m 136 489 q 192 628 136 571 q 331 685 249 685 q 470 628 413 685 q 527 489 527 571 q 470 349 527 406 q 331 293 413 293 q 192 349 249 293 q 136 489 136 406 "},"í":{"x_min":104,"x_max":641,"ha":561,"o":"m 104 0 l 104 778 l 458 778 l 458 0 l 104 0 m 105 880 l 232 1093 l 641 1093 l 435 880 l 105 880 "},"ˆ":{"x_min":-65,"x_max":760,"ha":694,"o":"m 546 1092 l 760 879 l 416 879 l 347 979 l 278 879 l -65 879 l 155 1092 l 546 1092 "},"µ":{"x_min":-20,"x_max":900,"ha":930,"o":"m 408 737 l 351 320 q 349 297 349 305 q 348 284 348 289 q 369 216 348 238 q 434 194 391 194 q 518 229 488 194 q 559 338 549 264 l 616 737 l 900 737 l 792 0 l 543 0 l 555 88 q 499 19 531 42 q 427 -3 467 -3 q 356 18 386 -3 q 308 81 326 39 l 259 -286 l -20 -286 l 122 737 l 408 737 "},"č":{"x_min":41,"x_max":1154,"ha":1198,"o":"m 1154 342 q 995 66 1135 158 q 598 -26 856 -26 q 186 82 331 -26 q 41 388 41 190 q 186 694 41 585 q 598 804 331 804 q 984 719 846 804 q 1147 468 1122 634 l 774 468 q 711 548 753 521 q 606 575 669 575 q 460 525 513 575 q 408 389 408 476 q 459 256 408 305 q 598 207 511 207 q 720 243 671 207 q 783 342 770 279 l 1154 342 m 401 880 l 188 1093 l 531 1093 l 600 993 l 669 1093 l 1013 1093 l 792 880 l 401 880 "},"’":{"x_min":109,"x_max":471,"ha":579,"o":"m 109 682 l 109 1003 l 471 1003 l 471 789 q 452 655 471 701 q 388 576 433 610 q 287 514 346 542 q 154 465 229 486 l 123 591 q 191 627 170 606 q 212 681 212 649 l 109 682 "},"-":{"x_min":86,"x_max":590,"ha":675,"o":"m 86 253 l 86 525 l 590 525 l 590 253 l 86 253 "},"Q":{"x_min":52,"x_max":1402,"ha":1453,"o":"m 742 232 l 677 298 l 859 478 l 961 372 q 978 428 973 398 q 984 501 984 459 q 917 702 984 632 q 727 772 851 772 q 536 702 602 772 q 470 500 470 632 q 535 301 470 371 q 723 232 601 232 l 742 232 m 974 -4 q 866 -20 925 -15 q 737 -26 807 -26 q 223 106 395 -26 q 52 501 52 238 q 222 895 52 762 q 727 1029 392 1029 q 1231 895 1061 1029 q 1402 501 1402 762 q 1358 268 1402 366 q 1225 104 1314 170 l 1347 -18 l 1163 -197 l 974 -4 "},"M":{"x_min":110,"x_max":1607,"ha":1716,"o":"m 110 0 l 110 1003 l 686 1003 l 855 391 l 1038 1003 l 1607 1003 l 1607 0 l 1247 0 l 1247 783 l 1008 0 l 705 0 l 469 783 l 469 0 l 110 0 "},"œ":{"x_min":41,"x_max":1819,"ha":1858,"o":"m 1051 474 l 1464 474 q 1405 573 1456 538 q 1268 609 1354 609 q 1120 574 1175 609 q 1051 474 1064 540 m 408 388 q 456 261 408 308 q 587 214 504 214 q 717 261 669 214 q 766 388 766 308 q 717 515 766 468 q 587 563 669 563 q 456 515 504 563 q 408 388 408 468 m 918 96 q 754 4 844 34 q 553 -26 665 -26 q 179 86 318 -26 q 41 388 41 198 q 181 693 41 582 q 569 804 322 804 q 765 775 678 804 q 919 688 851 746 q 1065 775 978 746 q 1270 804 1152 804 q 1676 679 1533 804 q 1819 326 1819 555 l 1819 308 l 1067 308 q 1120 211 1067 245 q 1269 177 1173 177 q 1374 192 1332 177 q 1434 237 1416 207 l 1812 237 q 1634 43 1775 112 q 1274 -26 1493 -26 q 1076 4 1164 -26 q 918 96 989 34 "},"{":{"x_min":98,"x_max":614,"ha":694,"o":"m 614 809 q 598 809 608 809 q 584 810 588 810 q 505 790 525 810 q 485 703 485 769 l 485 542 q 453 413 485 451 q 337 361 421 376 q 453 308 421 345 q 485 181 485 271 l 485 17 q 505 -67 485 -47 q 583 -88 525 -88 q 598 -87 588 -88 q 614 -87 608 -87 l 614 -280 l 559 -280 q 416 -272 465 -280 q 335 -249 366 -265 q 277 -192 294 -229 q 261 -65 261 -155 l 261 109 q 229 231 261 195 q 121 266 197 266 q 110 265 118 266 q 98 265 102 265 l 98 458 q 110 457 102 458 q 121 456 118 456 q 229 491 197 456 q 261 612 261 526 l 261 786 q 277 913 261 876 q 335 971 294 951 q 416 994 367 987 q 559 1002 466 1002 l 614 1002 l 614 809 "},"¼":{"x_min":215.328125,"x_max":1962,"ha":1995,"o":"m 1636 218 l 1636 423 l 1410 218 l 1636 218 m 1632 0 l 1632 86 l 1188 86 l 1188 227 l 1540 547 l 1851 547 l 1851 221 l 1962 221 l 1962 86 l 1851 86 l 1851 0 l 1632 0 m 507 -26 l 1326 1003 l 1487 1003 l 666 -26 l 507 -26 m 335 430 l 335 783 q 273 768 303 773 q 216 762 244 763 l 215 900 q 313 928 273 909 q 377 977 353 947 l 553 977 l 553 430 l 335 430 "},"#":{"x_min":-4,"x_max":1072,"ha":1068,"o":"m 641 565 l 479 565 l 426 421 l 588 421 l 641 565 m 636 997 l 548 748 l 702 748 l 789 997 l 985 997 l 898 748 l 1072 748 l 1004 565 l 833 565 l 781 421 l 956 421 l 888 238 l 716 238 l 627 -11 l 431 -11 l 520 238 l 366 238 l 278 -11 l 82 -11 l 170 238 l -4 238 l 63 421 l 235 421 l 286 565 l 111 565 l 177 748 l 352 748 l 440 997 l 636 997 "},"Ê":{"x_min":110,"x_max":1206,"ha":1221,"o":"m 110 0 l 110 1003 l 1173 1003 l 1173 757 l 499 757 l 499 638 l 1045 638 l 1045 390 l 499 390 l 499 258 l 1206 258 l 1206 0 l 110 0 m 839 1317 l 1053 1104 l 709 1104 l 640 1204 l 571 1104 l 228 1104 l 448 1317 l 839 1317 "},")":{"x_min":34,"x_max":667,"ha":714,"o":"m 34 1011 q 53 1012 40 1011 q 72 1013 66 1013 q 515 846 363 1013 q 667 361 667 680 q 515 -122 667 43 q 72 -288 363 -288 q 53 -287 66 -288 q 34 -286 40 -286 l 34 -5 l 55 -5 q 246 85 183 -5 q 309 361 309 175 q 246 639 309 548 q 55 730 183 730 l 34 730 l 34 1011 "},"Å":{"x_min":-40,"x_max":1293,"ha":1254,"o":"m 559 1185 q 577 1140 559 1157 q 624 1124 595 1124 q 673 1140 654 1124 q 693 1185 693 1157 q 674 1228 693 1212 q 624 1245 655 1245 q 576 1229 594 1245 q 559 1185 559 1213 m 421 1185 q 475 1297 421 1256 q 626 1338 530 1338 q 777 1297 722 1338 q 832 1185 832 1256 q 777 1072 832 1113 q 626 1031 722 1031 q 475 1072 530 1031 q 421 1185 421 1113 m 503 346 l 752 346 l 631 698 l 503 346 m -40 0 l 388 986 l 893 986 l 1293 0 l 872 0 l 838 98 l 412 98 l 376 0 l -40 0 "},"¸":{"x_min":132,"x_max":571,"ha":694,"o":"m 314 0 l 415 0 l 354 -86 q 398 -77 379 -80 q 434 -75 418 -75 q 534 -107 498 -75 q 571 -197 571 -140 q 522 -295 571 -262 q 377 -328 473 -328 q 266 -315 328 -328 q 132 -277 204 -302 l 164 -204 q 254 -231 213 -222 q 319 -241 294 -241 q 368 -227 350 -241 q 386 -191 386 -214 q 372 -164 386 -176 q 342 -151 358 -151 q 318 -155 330 -151 q 294 -169 307 -160 l 242 -134 l 314 0 "},"a":{"x_min":28,"x_max":1184,"ha":1238,"o":"m 797 362 q 612 327 743 335 q 554 323 574 325 q 450 300 477 316 q 423 252 423 284 q 455 195 423 215 q 548 175 488 175 q 731 221 663 175 q 800 343 800 267 q 799 355 800 352 q 797 362 799 359 m 799 106 q 642 6 734 38 q 409 -25 550 -25 q 123 38 219 -25 q 28 230 28 102 q 38 308 28 272 q 69 370 49 344 q 176 443 109 419 q 427 480 242 467 q 586 487 488 484 q 783 541 783 495 q 741 592 783 573 q 629 612 700 612 q 498 594 537 612 q 452 535 458 577 l 93 535 q 225 737 103 676 q 626 799 347 799 q 883 777 779 799 q 1041 714 988 756 q 1124 604 1100 668 q 1149 421 1149 540 l 1149 120 q 1156 53 1149 77 q 1184 16 1164 30 l 1184 0 l 821 0 q 806 49 812 23 q 799 106 800 76 "},"=":{"x_min":172,"x_max":984,"ha":1157,"o":"m 984 347 l 984 163 l 172 163 l 172 347 l 984 347 m 984 666 l 984 482 l 172 482 l 172 666 l 984 666 "},"˚":{"x_min":142,"x_max":553,"ha":694,"o":"m 142 1034 q 196 1146 142 1105 q 347 1187 251 1187 q 498 1146 443 1187 q 553 1034 553 1105 q 498 921 553 962 q 347 880 443 880 q 196 921 251 880 q 142 1034 142 962 m 281 1034 q 298 990 281 1007 q 346 974 316 974 q 394 990 376 974 q 413 1034 413 1007 q 394 1077 413 1061 q 346 1094 376 1094 q 298 1078 315 1094 q 281 1034 281 1062 "},"ú":{"x_min":89,"x_max":1072,"ha":1164,"o":"m 725 80 q 580 7 655 31 q 417 -16 504 -16 q 167 71 246 -16 q 89 346 89 158 l 89 778 l 436 778 l 436 411 q 463 291 436 324 q 560 259 491 259 q 681 295 637 259 q 725 396 725 332 l 725 778 l 1072 778 l 1072 0 l 725 0 l 725 80 m 406 880 l 533 1093 l 942 1093 l 736 880 l 406 880 "},"¯":{"x_min":28,"x_max":667,"ha":694,"o":"m 28 895 l 28 1078 l 667 1078 l 667 895 l 28 895 "},"Z":{"x_min":35,"x_max":1151,"ha":1185,"o":"m 35 0 l 35 222 l 623 751 l 70 751 l 70 1003 l 1151 1003 l 1151 775 l 566 264 l 1131 264 l 1131 0 l 35 0 "},"u":{"x_min":89,"x_max":1072,"ha":1164,"o":"m 725 80 q 580 7 655 31 q 417 -16 504 -16 q 167 71 246 -16 q 89 346 89 158 l 89 778 l 436 778 l 436 411 q 463 291 436 324 q 560 259 491 259 q 681 295 637 259 q 725 396 725 332 l 725 778 l 1072 778 l 1072 0 l 725 0 l 725 80 "},"k":{"x_min":94,"x_max":1192,"ha":1154,"o":"m 94 0 l 94 1011 l 441 1011 l 441 533 l 691 778 l 1156 778 l 848 508 l 1192 0 l 775 0 l 589 302 l 441 175 l 441 0 l 94 0 "},"Ù":{"x_min":110,"x_max":1295,"ha":1404,"o":"m 499 1003 l 499 512 q 544 302 499 361 q 703 244 590 244 q 860 302 815 244 q 906 512 906 360 l 906 1003 l 1295 1003 l 1295 475 q 1152 93 1295 214 q 702 -28 1010 -28 q 253 94 396 -28 q 110 475 110 216 l 110 1003 l 499 1003 m 548 1105 l 343 1318 l 751 1318 l 879 1105 l 548 1105 "},"¢":{"x_min":41,"x_max":1153.78125,"ha":1222,"o":"m 559 236 l 559 600 q 447 540 487 588 q 408 417 408 492 q 445 297 408 343 q 559 236 483 251 m 1153 370 q 1012 103 1136 198 q 666 0 887 9 l 666 -147 l 537 -147 l 537 0 q 171 119 302 10 q 41 416 41 229 q 170 711 41 601 q 537 833 300 820 l 537 977 l 666 977 l 666 833 q 1001 737 877 824 q 1147 496 1125 650 l 774 496 q 723 568 757 542 q 642 600 690 594 l 642 236 q 736 280 701 247 q 783 370 770 313 l 1153 370 "},"Ş":{"x_min":46.96875,"x_max":1312,"ha":1360,"o":"m 46 305 l 517 305 q 568 243 523 265 q 692 221 613 221 q 810 238 771 221 q 849 292 849 256 q 815 343 849 324 q 710 372 781 363 l 420 408 q 149 504 240 429 q 58 706 58 580 q 196 951 58 874 q 636 1029 334 1029 q 1102 951 949 1029 q 1267 711 1254 874 l 814 711 q 757 782 806 758 q 618 807 708 807 q 516 788 553 807 q 479 740 479 770 q 507 696 479 711 q 627 668 536 681 l 981 618 q 1229 522 1147 595 q 1312 325 1312 449 q 1147 55 1312 141 q 630 -31 983 -31 q 199 55 349 -31 q 46 305 49 142 m 721 0 l 822 0 l 761 -86 q 805 -77 786 -80 q 841 -75 825 -75 q 941 -107 905 -75 q 978 -197 978 -140 q 929 -295 978 -262 q 784 -328 880 -328 q 673 -315 735 -328 q 539 -277 611 -302 l 571 -204 q 661 -231 620 -222 q 726 -241 701 -241 q 775 -227 757 -241 q 793 -191 793 -214 q 779 -164 793 -176 q 749 -151 765 -151 q 725 -155 737 -151 q 701 -169 714 -160 l 649 -134 l 721 0 "},"é":{"x_min":41,"x_max":1165,"ha":1204,"o":"m 396 474 l 808 474 q 749 573 800 538 q 613 609 698 609 q 465 574 521 609 q 396 474 409 539 m 1158 237 q 975 40 1118 107 q 594 -26 832 -26 q 185 82 329 -26 q 41 388 41 190 q 185 695 41 587 q 594 804 329 804 q 1020 681 875 804 q 1165 321 1165 559 l 1165 308 l 413 308 q 465 211 413 245 q 614 177 518 177 q 719 192 677 177 q 780 237 761 207 l 1158 237 m 427 880 l 554 1093 l 963 1093 l 757 880 l 427 880 "},"B":{"x_min":110,"x_max":1343,"ha":1398,"o":"m 499 250 l 774 250 q 896 267 868 250 q 925 331 925 285 q 895 397 925 379 q 774 415 866 415 l 499 415 l 499 250 m 499 768 l 499 627 l 760 627 q 869 642 844 627 q 895 697 895 657 q 871 752 895 737 q 760 768 848 768 l 499 768 m 917 1003 q 1214 945 1127 1003 q 1302 752 1302 887 q 1268 623 1302 678 q 1168 533 1234 567 q 1298 442 1254 505 q 1343 286 1343 379 q 1249 71 1343 143 q 967 0 1155 0 l 110 0 l 110 1003 l 917 1003 "},"…":{"x_min":50,"x_max":1341,"ha":1389,"o":"m 50 0 l 50 321 l 414 321 l 414 0 l 50 0 m 513 0 l 513 321 l 877 321 l 877 0 l 513 0 m 977 0 l 977 321 l 1341 321 l 1341 0 l 977 0 "},"H":{"x_min":110,"x_max":1331,"ha":1440,"o":"m 110 0 l 110 1003 l 499 1003 l 499 656 l 942 656 l 942 1003 l 1331 1003 l 1331 0 l 942 0 l 942 406 l 499 406 l 499 0 l 110 0 "},"î":{"x_min":-131,"x_max":694,"ha":561,"o":"m 104 0 l 104 778 l 458 778 l 458 0 l 104 0 m 480 1092 l 694 879 l 350 879 l 281 979 l 212 879 l -131 879 l 89 1092 l 480 1092 "},"−":{"x_min":172,"x_max":984,"ha":1157,"o":"m 984 509 l 984 321 l 172 321 l 172 509 l 984 509 "},"≠":{"x_min":172,"x_max":984,"ha":1157,"o":"m 938 756 l 862 662 l 984 662 l 984 486 l 741 486 l 624 343 l 984 343 l 984 165 l 506 165 l 342 -37 l 208 70 l 284 165 l 172 165 l 172 343 l 402 343 l 517 486 l 172 486 l 172 662 l 639 662 l 805 866 l 938 756 "},"¥":{"x_min":-39,"x_max":1196.53125,"ha":1157,"o":"m 1196 978 l 988 650 l 1126 650 l 1126 552 l 922 552 l 848 431 l 1126 431 l 1126 332 l 783 332 l 750 277 l 750 0 l 401 0 l 401 277 l 365 332 l 25 332 l 25 431 l 302 431 l 228 552 l 25 552 l 25 650 l 166 650 l -39 978 l 396 978 l 577 575 l 769 978 l 1196 978 "},"U":{"x_min":110,"x_max":1295,"ha":1404,"o":"m 499 1003 l 499 512 q 544 302 499 361 q 703 244 590 244 q 860 302 815 244 q 906 512 906 360 l 906 1003 l 1295 1003 l 1295 475 q 1152 93 1295 214 q 702 -28 1010 -28 q 253 94 396 -28 q 110 475 110 216 l 110 1003 l 499 1003 "},"Ñ":{"x_min":109,"x_max":1332,"ha":1442,"o":"m 109 0 l 109 1003 l 568 1003 l 956 425 l 956 1003 l 1332 1003 l 1332 0 l 896 0 l 475 587 l 475 0 l 109 0 m 356 1107 q 423 1267 368 1212 q 568 1323 478 1323 q 711 1297 634 1323 q 804 1271 788 1271 q 845 1285 830 1271 q 861 1323 860 1299 l 1087 1323 q 1019 1162 1074 1217 q 873 1107 964 1107 q 731 1133 808 1107 q 637 1159 654 1159 q 597 1145 612 1159 q 580 1107 582 1131 l 356 1107 "},"F":{"x_min":110,"x_max":1111,"ha":1125,"o":"m 110 0 l 110 1003 l 1111 1003 l 1111 757 l 499 757 l 499 621 l 999 621 l 999 374 l 499 374 l 499 0 l 110 0 "},"*":{"x_min":103,"x_max":797,"ha":900,"o":"m 449 539 l 325 368 l 179 473 l 304 645 l 103 711 l 157 883 l 359 818 l 359 1029 l 540 1029 l 540 818 l 741 883 l 797 711 l 596 645 l 720 473 l 573 368 l 449 539 "},"†":{"x_min":136,"x_max":1185,"ha":1320,"o":"m 840 -212 l 481 -212 l 481 444 l 136 444 l 136 762 l 481 762 l 481 1003 l 840 1003 l 840 762 l 1185 762 l 1185 444 l 840 444 l 840 -212 "},"∕":{"x_min":-329,"x_max":652,"ha":321,"o":"m -329 -26 l 490 1003 l 652 1003 l -169 -26 l -329 -26 "},"°":{"x_min":10,"x_max":447,"ha":457,"o":"m 332 781 q 301 853 332 823 q 227 884 270 884 q 155 853 185 884 q 125 781 125 823 q 155 707 125 737 q 228 677 185 677 q 301 708 271 677 q 332 781 332 739 m 229 999 q 383 935 320 999 q 447 779 447 871 q 382 626 447 690 q 228 562 318 562 q 73 625 137 562 q 10 779 10 688 q 74 934 10 870 q 229 999 139 999 "},"å":{"x_min":28,"x_max":1184,"ha":1238,"o":"m 559 996 q 577 952 559 969 q 624 936 595 936 q 673 953 654 936 q 693 996 693 970 q 674 1041 693 1024 q 624 1058 655 1058 q 576 1041 594 1058 q 559 996 559 1024 m 421 996 q 475 1109 421 1068 q 626 1150 530 1150 q 777 1109 722 1150 q 832 996 832 1068 q 777 884 832 925 q 626 843 722 843 q 475 884 530 843 q 421 996 421 925 m 797 362 q 612 327 743 335 q 554 323 574 325 q 450 300 477 316 q 423 252 423 284 q 455 195 423 215 q 548 175 488 175 q 731 221 663 175 q 800 343 800 267 q 799 355 800 352 q 797 362 799 359 m 799 106 q 642 6 734 38 q 409 -25 550 -25 q 123 38 219 -25 q 28 230 28 102 q 38 308 28 272 q 69 370 49 344 q 176 443 109 419 q 427 480 242 467 q 586 487 488 484 q 783 541 783 495 q 741 592 783 573 q 629 612 700 612 q 498 594 537 612 q 452 535 458 577 l 93 535 q 225 737 103 676 q 626 799 347 799 q 883 777 779 799 q 1041 714 988 756 q 1124 604 1100 668 q 1149 421 1149 540 l 1149 120 q 1156 53 1149 77 q 1184 16 1164 30 l 1184 0 l 821 0 q 806 49 812 23 q 799 106 800 76 "},"0":{"x_min":49,"x_max":1279,"ha":1328,"o":"m 49 489 q 209 868 49 734 q 664 1003 369 1003 q 1118 868 958 1003 q 1279 489 1279 734 q 1118 108 1279 243 q 664 -26 958 -26 q 209 108 369 -26 q 49 489 49 243 m 664 751 q 492 680 556 751 q 429 489 429 609 q 492 297 429 368 q 664 226 556 226 q 835 297 771 226 q 899 489 899 368 q 835 680 899 609 q 664 751 771 751 "},"":{"x_min":77,"x_max":1021,"ha":1097,"o":"m 567 824 q 566 834 566 828 q 565 849 565 839 q 630 1005 565 934 q 790 1094 694 1077 q 791 1079 791 1087 q 791 1052 791 1070 q 721 893 791 963 q 583 823 651 823 l 578 823 q 573 824 576 823 q 567 824 570 824 m 1021 273 q 881 40 943 105 q 743 -24 820 -24 q 654 -1 709 -24 q 571 20 599 20 q 482 -1 540 20 q 396 -24 424 -24 q 309 5 353 -24 q 221 95 265 35 q 114 295 152 190 q 77 499 77 401 q 161 741 77 648 q 380 835 246 835 q 485 811 426 835 q 569 788 544 788 q 652 811 592 788 q 755 835 711 835 q 890 808 830 835 q 999 725 950 781 q 896 626 929 681 q 863 502 863 571 q 903 366 863 425 q 1021 273 944 307 "},"”":{"x_min":104,"x_max":940,"ha":1051,"o":"m 104 682 l 104 1003 l 468 1003 l 468 789 q 448 656 468 702 q 384 576 429 610 q 282 514 341 541 q 150 465 224 486 l 120 591 q 187 627 166 606 q 209 681 208 649 l 104 682 m 578 682 l 578 1003 l 940 1003 l 940 789 q 921 655 940 701 q 858 576 903 610 q 756 514 815 542 q 624 465 698 486 l 592 591 q 660 627 639 606 q 681 682 681 649 l 578 682 "},"ö":{"x_min":41,"x_max":1134,"ha":1177,"o":"m 408 388 q 456 261 408 308 q 587 214 504 214 q 717 261 669 214 q 766 388 766 308 q 717 515 766 468 q 587 563 669 563 q 456 515 504 563 q 408 388 408 468 m 41 388 q 184 695 41 586 q 588 804 327 804 q 991 695 849 804 q 1134 388 1134 587 q 991 82 1134 190 q 588 -26 849 -26 q 184 82 327 -26 q 41 388 41 190 m 630 887 l 630 1084 l 907 1084 l 907 887 l 630 887 m 267 887 l 267 1084 l 543 1084 l 543 887 l 267 887 "},"Õ":{"x_min":52,"x_max":1402,"ha":1453,"o":"m 470 500 q 536 301 470 370 q 727 232 602 232 q 917 301 851 232 q 984 500 984 370 q 917 702 984 632 q 727 772 851 772 q 536 702 602 772 q 470 500 470 632 m 52 501 q 222 895 52 762 q 727 1029 392 1029 q 1231 895 1061 1029 q 1402 501 1402 762 q 1231 107 1402 240 q 727 -26 1061 -26 q 222 107 392 -26 q 52 501 52 240 m 361 1107 q 428 1267 373 1212 q 573 1323 483 1323 q 716 1297 639 1323 q 809 1271 793 1271 q 850 1285 835 1271 q 866 1323 865 1299 l 1092 1323 q 1024 1162 1079 1217 q 878 1107 969 1107 q 736 1133 813 1107 q 642 1159 659 1159 q 602 1145 617 1159 q 585 1107 587 1131 l 361 1107 "},"ć":{"x_min":41,"x_max":1154,"ha":1198,"o":"m 1154 342 q 995 66 1135 158 q 598 -26 856 -26 q 186 82 331 -26 q 41 388 41 190 q 186 694 41 585 q 598 804 331 804 q 984 719 846 804 q 1147 468 1122 634 l 774 468 q 711 548 753 521 q 606 575 669 575 q 460 525 513 575 q 408 389 408 476 q 459 256 408 305 q 598 207 511 207 q 720 243 671 207 q 783 342 770 279 l 1154 342 m 424 880 l 551 1093 l 960 1093 l 754 880 l 424 880 "},"þ":{"x_min":94,"x_max":1162,"ha":1206,"o":"m 94 -252 l 94 1011 l 441 1011 l 441 716 q 578 777 506 757 q 734 798 649 798 q 1046 686 930 798 q 1162 388 1162 575 q 1045 90 1162 201 q 729 -20 928 -20 q 574 0 645 -20 q 441 63 504 21 l 441 -252 l 94 -252 m 441 388 q 489 263 441 310 q 618 216 537 216 q 748 263 700 216 q 797 388 797 310 q 748 514 797 467 q 618 561 699 561 q 489 514 538 561 q 441 388 441 467 "},"]":{"x_min":30,"x_max":628,"ha":714,"o":"m 628 1011 l 628 -256 l 30 -256 l 30 11 l 273 11 l 273 744 l 30 744 l 30 1011 l 628 1011 "},"8":{"x_min":60,"x_max":1269,"ha":1328,"o":"m 460 307 q 506 244 460 263 q 664 226 553 226 q 822 244 775 226 q 869 307 869 263 q 821 370 869 351 q 664 389 774 389 q 507 370 554 389 q 460 307 460 351 m 472 687 q 515 632 472 649 q 664 616 559 616 q 812 632 768 616 q 856 687 856 649 q 812 742 856 726 q 664 759 768 759 q 515 742 559 759 q 472 687 472 726 m 176 518 q 96 587 122 543 q 71 699 71 631 q 215 927 71 853 q 664 1002 360 1002 q 1112 927 967 1002 q 1257 699 1257 853 q 1231 587 1257 631 q 1152 518 1206 543 q 1240 437 1211 489 q 1269 312 1269 386 q 1123 56 1269 137 q 664 -24 978 -24 q 205 56 350 -24 q 60 312 60 137 q 88 437 60 386 q 176 518 117 489 "},"R":{"x_min":110,"x_max":1334.5625,"ha":1377,"o":"m 873 1003 q 1082 990 1004 1003 q 1205 951 1161 977 q 1291 862 1261 918 q 1321 733 1321 806 q 1276 577 1321 644 q 1155 479 1232 509 q 1248 410 1221 451 q 1280 266 1275 369 q 1281 234 1280 254 q 1334 15 1290 37 l 1334 0 l 902 0 q 880 123 882 31 q 876 206 879 177 q 839 283 869 261 q 735 306 808 306 l 504 306 l 504 0 l 110 0 l 110 1003 l 873 1003 m 504 570 l 730 570 q 855 591 819 570 q 892 661 892 612 q 857 729 892 710 q 720 749 823 749 l 504 749 l 504 570 "},"o":{"x_min":41,"x_max":1134,"ha":1177,"o":"m 408 388 q 456 261 408 308 q 587 214 504 214 q 717 261 669 214 q 766 388 766 308 q 717 515 766 468 q 587 563 669 563 q 456 515 504 563 q 408 388 408 468 m 41 388 q 184 695 41 586 q 588 804 327 804 q 991 695 849 804 q 1134 388 1134 587 q 991 82 1134 190 q 588 -26 849 -26 q 184 82 327 -26 q 41 388 41 190 "},"5":{"x_min":40,"x_max":1272,"ha":1328,"o":"m 40 325 l 450 325 q 507 255 455 278 q 662 232 560 232 q 814 259 763 232 q 866 341 866 286 q 812 427 866 398 q 651 456 759 456 q 556 447 600 456 q 470 424 511 439 l 86 424 l 184 978 l 1214 978 l 1214 742 l 434 742 l 415 633 q 552 662 479 653 q 715 672 626 672 q 1129 586 987 672 q 1272 337 1272 501 q 1114 67 1272 159 q 651 -24 956 -24 q 190 58 332 -24 q 40 325 47 141 "},"õ":{"x_min":41,"x_max":1134,"ha":1177,"o":"m 408 388 q 456 261 408 308 q 587 214 504 214 q 717 261 669 214 q 766 388 766 308 q 717 515 766 468 q 587 563 669 563 q 456 515 504 563 q 408 388 408 468 m 41 388 q 184 695 41 586 q 588 804 327 804 q 991 695 849 804 q 1134 388 1134 587 q 991 82 1134 190 q 588 -26 849 -26 q 184 82 327 -26 q 41 388 41 190 m 223 882 q 290 1042 235 987 q 435 1098 345 1098 q 578 1072 501 1098 q 671 1046 655 1046 q 712 1060 697 1046 q 728 1098 727 1074 l 954 1098 q 886 937 941 992 q 740 882 831 882 q 598 908 675 882 q 504 934 521 934 q 464 920 479 934 q 447 882 449 906 l 223 882 "},",":{"x_min":150,"x_max":514,"ha":664,"o":"m 150 0 l 150 321 l 514 321 l 514 108 q 495 -24 514 21 q 430 -105 476 -70 q 328 -167 387 -139 q 196 -216 270 -195 l 165 -88 q 233 -52 212 -73 q 255 0 254 -31 l 150 0 "},"d":{"x_min":43,"x_max":1111,"ha":1206,"o":"m 764 388 q 715 514 764 467 q 586 561 667 561 q 457 514 505 561 q 409 388 409 467 q 457 263 409 310 q 586 216 505 216 q 715 263 667 216 q 764 388 764 310 m 1111 1011 l 1111 0 l 780 0 l 778 76 q 638 4 715 28 q 469 -20 561 -20 q 158 91 274 -20 q 43 388 43 203 q 160 687 43 576 q 475 798 277 798 q 630 777 559 798 q 764 714 700 756 l 764 1011 l 1111 1011 "},"\"":{"x_min":46,"x_max":467,"ha":514,"o":"m 467 977 l 467 595 l 292 595 l 292 977 l 467 977 m 221 977 l 221 595 l 46 595 l 46 977 l 221 977 "},"˙":{"x_min":175,"x_max":520,"ha":694,"o":"m 175 887 l 175 1084 l 520 1084 l 520 887 l 175 887 "},"ê":{"x_min":41,"x_max":1165,"ha":1204,"o":"m 396 474 l 808 474 q 749 573 800 538 q 613 609 698 609 q 465 574 521 609 q 396 474 409 539 m 1158 237 q 975 40 1118 107 q 594 -26 832 -26 q 185 82 329 -26 q 41 388 41 190 q 185 695 41 587 q 594 804 329 804 q 1020 681 875 804 q 1165 321 1165 559 l 1165 308 l 413 308 q 465 211 413 245 q 614 177 518 177 q 719 192 677 177 q 780 237 761 207 l 1158 237 m 802 1092 l 1016 879 l 672 879 l 603 979 l 534 879 l 191 879 l 411 1092 l 802 1092 "},"„":{"x_min":104,"x_max":940,"ha":1051,"o":"m 104 0 l 104 321 l 468 321 l 468 108 q 448 -24 468 21 q 384 -105 429 -70 q 282 -167 341 -140 q 150 -216 224 -195 l 120 -88 q 187 -53 167 -73 q 209 0 207 -32 l 104 0 m 578 0 l 578 321 l 940 321 l 940 108 q 921 -25 940 19 q 858 -105 903 -70 q 756 -167 815 -139 q 624 -216 698 -195 l 592 -88 q 660 -52 639 -73 q 681 0 681 -31 l 578 0 "},"Â":{"x_min":-40,"x_max":1293,"ha":1254,"o":"m 503 346 l 752 346 l 631 698 l 503 346 m -40 0 l 394 1003 l 887 1003 l 1293 0 l 871 0 l 838 98 l 412 98 l 376 0 l -40 0 m 839 1317 l 1053 1104 l 709 1104 l 640 1204 l 571 1104 l 228 1104 l 448 1317 l 839 1317 "},"Í":{"x_min":110,"x_max":664,"ha":607,"o":"m 110 0 l 110 1003 l 499 1003 l 499 0 l 110 0 m 128 1105 l 255 1318 l 664 1318 l 458 1105 l 128 1105 "},"´":{"x_min":171,"x_max":707,"ha":694,"o":"m 171 880 l 298 1093 l 707 1093 l 501 880 l 171 880 "},"Ú":{"x_min":110,"x_max":1295,"ha":1404,"o":"m 499 1003 l 499 512 q 544 302 499 361 q 703 244 590 244 q 860 302 815 244 q 906 512 906 360 l 906 1003 l 1295 1003 l 1295 475 q 1152 93 1295 214 q 702 -28 1010 -28 q 253 94 396 -28 q 110 475 110 216 l 110 1003 l 499 1003 m 526 1105 l 653 1318 l 1062 1318 l 856 1105 l 526 1105 "},"Ý":{"x_min":-60,"x_max":1216,"ha":1157,"o":"m 380 0 l 380 283 l -60 1003 l 396 1003 l 577 590 l 769 1003 l 1216 1003 l 769 283 l 769 0 l 380 0 m 403 1105 l 530 1318 l 939 1318 l 733 1105 l 403 1105 "},"Ω":{"x_min":24,"x_max":1134,"ha":1157,"o":"m 1134 237 l 1134 0 l 685 0 l 685 272 q 753 392 730 327 q 777 530 777 457 q 722 708 777 642 q 578 775 668 775 q 434 708 488 775 q 381 530 381 642 q 404 392 381 457 q 473 272 427 327 l 473 0 l 24 0 l 24 237 l 275 237 q 129 379 178 292 q 81 583 81 465 q 217 902 81 780 q 578 1025 354 1025 q 939 902 802 1025 q 1077 583 1077 779 q 1028 379 1077 465 q 882 237 979 292 l 1134 237 "},"Ö":{"x_min":52,"x_max":1402,"ha":1453,"o":"m 470 500 q 536 301 470 370 q 727 232 602 232 q 917 301 851 232 q 984 500 984 370 q 917 702 984 632 q 727 772 851 772 q 536 702 602 772 q 470 500 470 632 m 52 501 q 222 895 52 762 q 727 1029 392 1029 q 1231 895 1061 1029 q 1402 501 1402 762 q 1231 107 1402 240 q 727 -26 1061 -26 q 222 107 392 -26 q 52 501 52 240 m 768 1112 l 768 1309 l 1045 1309 l 1045 1112 l 768 1112 m 405 1112 l 405 1309 l 681 1309 l 681 1112 l 405 1112 "},"z":{"x_min":17,"x_max":937,"ha":981,"o":"m 17 0 l 17 205 l 443 541 l 62 541 l 62 778 l 937 778 l 937 574 l 518 248 l 927 248 l 927 0 l 17 0 "},"™":{"x_min":111,"x_max":1014,"ha":1157,"o":"m 707 996 l 774 815 l 840 996 l 1014 996 l 1014 617 l 891 617 l 891 866 l 798 617 l 751 617 l 658 866 l 658 617 l 534 617 l 534 996 l 707 996 m 468 996 l 468 894 l 358 894 l 358 617 l 221 617 l 221 894 l 111 894 l 111 996 l 468 996 "},"ã":{"x_min":28,"x_max":1184,"ha":1238,"o":"m 797 362 q 612 327 743 335 q 554 323 574 325 q 450 300 477 316 q 423 252 423 284 q 455 195 423 215 q 548 175 488 175 q 731 221 663 175 q 800 343 800 267 q 799 355 800 352 q 797 362 799 359 m 799 106 q 642 6 734 38 q 409 -25 550 -25 q 123 38 219 -25 q 28 230 28 102 q 38 308 28 272 q 69 370 49 344 q 176 443 109 419 q 427 480 242 467 q 586 487 488 484 q 783 541 783 495 q 741 592 783 573 q 629 612 700 612 q 498 594 537 612 q 452 535 458 577 l 93 535 q 225 737 103 676 q 626 799 347 799 q 883 777 779 799 q 1041 714 988 756 q 1124 604 1100 668 q 1149 421 1149 540 l 1149 120 q 1156 53 1149 77 q 1184 16 1164 30 l 1184 0 l 821 0 q 806 49 812 23 q 799 106 800 76 m 268 882 q 335 1042 280 987 q 480 1098 390 1098 q 623 1072 546 1098 q 716 1046 700 1046 q 757 1060 742 1046 q 773 1098 772 1074 l 999 1098 q 931 937 986 992 q 785 882 876 882 q 643 908 720 882 q 549 934 566 934 q 509 920 524 934 q 492 882 494 906 l 268 882 "},"æ":{"x_min":28,"x_max":1854,"ha":1891,"o":"m 1085 474 l 1499 474 q 1440 573 1491 538 q 1302 609 1388 609 q 1154 574 1210 609 q 1085 474 1099 540 m 798 362 q 613 327 744 335 q 554 323 575 325 q 450 300 477 316 q 423 252 423 284 q 455 195 423 215 q 549 175 488 175 q 732 221 663 175 q 801 343 801 267 q 800 355 801 351 q 798 362 800 359 m 860 115 q 665 8 777 43 q 400 -26 553 -26 q 122 39 217 -26 q 28 231 28 104 q 38 308 28 273 q 69 370 49 344 q 176 443 109 419 q 428 480 243 467 q 587 487 489 484 q 784 541 784 495 q 743 591 784 573 q 629 609 702 609 q 496 592 534 609 q 452 535 458 575 l 93 535 q 224 738 103 673 q 593 804 345 804 q 805 781 722 804 q 942 709 888 758 q 1092 780 1003 756 q 1299 804 1181 804 q 1710 680 1566 804 q 1854 328 1854 557 l 1854 308 l 1102 308 q 1155 211 1102 245 q 1303 177 1208 177 q 1409 192 1367 177 q 1469 237 1451 207 l 1847 237 q 1664 40 1807 107 q 1282 -26 1521 -26 q 1022 10 1131 -26 q 860 115 914 46 "},"É":{"x_min":110,"x_max":1206,"ha":1221,"o":"m 110 0 l 110 1003 l 1173 1003 l 1173 757 l 499 757 l 499 638 l 1045 638 l 1045 390 l 499 390 l 499 258 l 1206 258 l 1206 0 l 110 0 m 464 1105 l 591 1318 l 1000 1318 l 794 1105 l 464 1105 "},"~":{"x_min":121,"x_max":1038,"ha":1157,"o":"m 1038 367 q 907 299 968 320 q 786 278 846 278 q 710 285 749 278 q 605 316 671 293 q 474 353 521 344 q 380 363 426 363 q 261 337 323 363 q 121 255 199 311 l 121 459 q 267 533 201 510 q 397 556 333 556 q 481 547 437 556 q 586 520 525 539 q 629 505 601 515 q 789 469 732 469 q 907 493 847 469 q 1038 570 968 518 l 1038 367 "},"³":{"x_min":25,"x_max":843,"ha":876,"o":"m 25 589 l 292 589 q 337 543 302 558 q 437 529 372 529 q 536 541 504 529 q 568 580 568 553 q 541 618 568 607 q 445 630 515 630 l 304 630 l 304 769 l 435 769 q 528 777 506 769 q 551 807 551 786 q 520 840 551 829 q 431 852 490 852 q 359 844 384 852 q 329 820 334 837 l 50 820 q 146 950 56 909 q 427 991 237 991 q 728 951 633 991 q 823 828 823 912 q 794 749 823 779 q 709 709 766 719 q 809 662 776 696 q 843 571 843 628 q 743 424 843 472 q 440 376 644 376 q 128 426 226 376 q 25 589 31 477 "},"¡":{"x_min":111,"x_max":498,"ha":611,"o":"m 463 613 l 498 0 l 111 0 l 146 613 l 463 613 m 486 1003 l 486 682 l 123 682 l 123 1003 l 486 1003 "},"[":{"x_min":86,"x_max":683,"ha":714,"o":"m 86 -256 l 86 1011 l 683 1011 l 683 744 l 440 744 l 440 11 l 683 11 l 683 -256 l 86 -256 "},"%":{"x_min":52,"x_max":1522,"ha":1572,"o":"m 1176 375 q 1081 339 1116 375 q 1046 243 1046 304 q 1080 147 1046 182 q 1176 112 1115 112 q 1272 147 1236 112 q 1308 243 1308 182 q 1272 339 1308 304 q 1176 375 1236 375 m 832 243 q 922 442 832 371 q 1177 513 1012 513 q 1431 442 1341 513 q 1522 243 1522 371 q 1431 44 1522 115 q 1177 -26 1341 -26 q 922 44 1012 -26 q 832 243 832 115 m 284 -26 l 1116 1003 l 1290 1003 l 457 -26 l 284 -26 m 396 867 q 301 830 337 867 q 266 733 266 794 q 300 637 266 672 q 396 603 335 603 q 492 637 457 603 q 528 733 528 672 q 492 831 528 795 q 396 867 456 867 m 52 734 q 142 932 52 862 q 397 1003 232 1003 q 652 932 562 1003 q 742 734 742 862 q 651 534 742 605 q 397 464 561 464 q 142 535 232 464 q 52 734 52 606 "},"P":{"x_min":110,"x_max":1304,"ha":1327,"o":"m 711 787 l 499 787 l 499 571 l 711 571 q 842 595 806 571 q 879 678 879 619 q 842 762 879 738 q 711 787 806 787 m 110 0 l 110 1003 l 860 1003 q 1188 917 1072 1003 q 1304 677 1304 832 q 1188 438 1304 523 q 860 353 1072 353 l 499 353 l 499 0 l 110 0 "},"∏":{"x_min":94,"x_max":1043,"ha":1145,"o":"m 94 999 l 1043 999 l 1043 -266 l 722 -266 l 722 733 l 415 733 l 415 -266 l 94 -266 l 94 999 "},"_":{"x_min":0,"x_max":694,"ha":694,"o":"m 694 -137 l 694 -328 l 0 -328 l 0 -137 l 694 -137 "},"ñ":{"x_min":92,"x_max":1075,"ha":1164,"o":"m 92 0 l 92 778 l 439 778 l 439 697 q 584 769 508 746 q 746 793 659 793 q 996 706 917 793 q 1075 430 1075 619 l 1075 0 l 728 0 l 728 365 q 700 485 728 452 q 603 518 672 518 q 482 481 526 518 q 439 380 439 444 l 439 0 l 92 0 m 217 882 q 284 1042 229 987 q 429 1098 339 1098 q 572 1072 495 1098 q 665 1046 649 1046 q 706 1060 691 1046 q 722 1098 721 1074 l 948 1098 q 880 937 935 992 q 734 882 825 882 q 592 908 669 882 q 498 934 515 934 q 458 920 473 934 q 441 882 443 906 l 217 882 "},"‚":{"x_min":109,"x_max":471,"ha":579,"o":"m 109 0 l 109 321 l 471 321 l 471 108 q 452 -25 471 19 q 388 -105 433 -70 q 287 -167 346 -139 q 154 -216 229 -195 l 123 -88 q 191 -52 170 -73 q 212 0 212 -31 l 109 0 "},"Æ":{"x_min":-109,"x_max":1833,"ha":1849,"o":"m -109 0 l 518 1003 l 1798 1003 l 1798 757 l 1125 757 l 1125 638 l 1672 638 l 1672 390 l 1125 390 l 1125 258 l 1833 258 l 1833 0 l 749 0 l 749 170 l 367 170 l 272 0 l -109 0 m 495 405 l 749 405 l 749 772 l 704 772 l 495 405 "},"₣":{"x_min":110,"x_max":2045,"ha":2077,"o":"m 110 0 l 110 1003 l 1111 1003 l 1111 757 l 499 757 l 499 621 l 999 621 l 999 374 l 499 374 l 499 0 l 110 0 m 1221 0 l 1221 778 l 1565 778 l 1569 718 q 1662 777 1608 757 q 1785 798 1717 798 q 1982 725 1919 798 q 2045 494 2045 652 l 2045 427 l 1738 427 l 1738 432 q 1717 520 1738 491 q 1655 549 1697 549 q 1592 515 1611 549 q 1574 401 1574 482 l 1574 0 l 1221 0 "},"ğ":{"x_min":43,"x_max":1111,"ha":1206,"o":"m 409 416 q 457 310 409 350 q 586 271 505 271 q 715 310 667 271 q 763 416 763 350 q 715 523 763 483 q 586 564 666 564 q 457 523 506 564 q 409 416 409 483 m 1111 172 q 1104 24 1111 70 q 1080 -51 1097 -22 q 893 -208 1016 -158 q 568 -258 771 -258 q 212 -195 334 -258 q 65 -1 90 -133 l 530 -1 q 560 -38 538 -26 q 619 -50 581 -50 q 731 -16 697 -50 q 765 96 765 17 q 764 121 765 112 q 763 137 764 129 q 630 73 705 94 q 458 52 554 52 q 155 153 268 52 q 43 424 43 254 q 156 695 43 593 q 459 798 270 798 q 638 774 559 798 q 777 702 716 751 l 780 778 l 1111 778 l 1111 172 m 281 1100 l 524 1100 l 524 1091 q 545 1044 524 1061 q 603 1028 566 1028 q 662 1044 642 1028 q 682 1095 682 1061 l 682 1100 l 925 1100 q 828 935 913 994 q 603 877 743 877 q 377 935 462 877 q 281 1100 292 994 "},"ª":{"x_min":21,"x_max":887.671875,"ha":928,"o":"m 598 712 q 464 687 560 694 q 415 684 432 685 q 337 668 358 679 q 317 635 317 657 q 341 595 317 609 q 411 581 366 581 q 548 613 497 581 q 600 699 600 645 q 599 707 600 704 q 598 712 599 709 m 600 533 q 482 462 551 484 q 307 441 412 441 q 92 485 164 441 q 21 620 21 530 q 29 674 21 650 q 52 717 37 699 q 319 795 106 781 l 320 795 q 437 800 365 798 q 587 838 587 805 q 556 874 587 860 q 471 888 525 888 q 373 875 403 888 q 338 834 343 863 l 69 834 q 170 975 78 932 q 469 1018 261 1018 q 661 1003 582 1018 q 781 958 740 988 q 843 882 825 927 q 861 753 861 838 l 861 543 q 867 496 861 513 q 887 470 873 480 l 887 459 l 616 459 q 605 494 609 475 q 600 533 600 513 "},"Œ":{"x_min":52,"x_max":2045,"ha":2061,"o":"m 2045 0 l 949 0 l 949 80 q 809 -1 893 25 q 603 -28 725 -28 q 196 105 340 -28 q 52 482 52 239 q 200 888 52 745 q 625 1031 349 1031 q 814 1005 736 1031 q 949 927 893 980 l 949 1003 l 2012 1003 l 2012 757 l 1338 757 l 1338 638 l 1884 638 l 1884 390 l 1338 390 l 1338 258 l 2045 258 l 2045 0 m 949 426 l 949 578 q 892 723 949 673 q 726 773 835 773 q 536 703 602 773 q 470 501 470 633 q 536 301 470 370 q 726 232 602 232 q 894 279 839 232 q 949 426 949 327 "},"T":{"x_min":3,"x_max":1119,"ha":1121,"o":"m 366 0 l 366 749 l 3 749 l 3 1003 l 1119 1003 l 1119 749 l 755 749 l 755 0 l 366 0 "},"š":{"x_min":34.21875,"x_max":1117,"ha":1164,"o":"m 34 249 l 458 249 q 493 190 462 208 q 596 173 525 173 q 685 186 655 173 q 716 225 716 199 q 557 286 716 271 q 509 290 526 289 l 507 290 q 162 355 252 315 q 82 428 110 378 q 54 544 54 477 q 177 741 54 679 q 570 804 300 804 q 950 740 825 804 q 1083 542 1074 676 l 684 542 q 647 599 680 581 q 541 617 614 617 q 450 603 479 617 q 422 562 422 590 q 558 507 422 517 q 601 502 586 504 l 635 500 q 954 460 908 475 q 1080 382 1043 428 q 1117 255 1117 335 q 985 40 1117 106 q 555 -26 854 -26 q 164 40 289 -26 q 34 249 40 106 m 383 880 l 170 1093 l 513 1093 l 582 993 l 651 1093 l 995 1093 l 774 880 l 383 880 "},"Þ":{"x_min":110,"x_max":1304,"ha":1327,"o":"m 711 404 q 842 428 806 404 q 879 512 879 452 q 842 595 879 571 q 711 620 806 620 l 499 620 l 499 404 l 711 404 m 110 0 l 110 1003 l 499 1003 l 499 836 l 860 836 q 1188 750 1072 836 q 1304 511 1304 665 q 1188 271 1304 356 q 860 186 1072 186 l 499 186 l 499 0 l 110 0 "},"j":{"x_min":-34,"x_max":463,"ha":554,"o":"m 113 842 l 113 1039 l 463 1039 l 463 842 l 113 842 m -34 17 l 17 17 q 93 41 74 17 q 113 180 113 65 l 113 778 l 463 778 l 463 15 q 448 -118 463 -79 q 397 -187 433 -157 q 296 -233 362 -217 q 138 -249 230 -249 q 52 -244 95 -249 q -34 -232 10 -240 l -34 17 "},"1":{"x_min":342,"x_max":879,"ha":1328,"o":"m 532 0 l 532 632 q 434 606 481 615 q 342 596 387 598 l 342 842 q 497 891 433 857 q 600 978 561 925 l 879 978 l 879 0 l 532 0 "},"›":{"x_min":96,"x_max":438,"ha":530,"o":"m 438 295 l 96 26 l 96 308 l 205 388 l 96 468 l 96 751 l 438 481 l 438 295 "},"<":{"x_min":179,"x_max":978,"ha":1157,"o":"m 978 635 l 434 413 l 978 191 l 978 -11 l 179 319 l 179 509 l 978 840 l 978 635 "},"t":{"x_min":8,"x_max":616,"ha":646,"o":"m 616 0 q 527 -10 570 -6 q 445 -14 485 -14 q 329 -6 380 -14 q 237 17 277 1 q 155 87 179 41 q 132 235 132 132 l 132 540 l 8 540 l 8 758 l 132 758 l 132 1012 l 482 1012 l 482 758 l 607 758 l 607 540 l 482 540 l 482 378 q 498 239 482 263 q 566 215 515 215 l 616 215 l 616 0 "},"¬":{"x_min":172,"x_max":984,"ha":1157,"o":"m 984 589 l 984 249 l 800 249 l 800 409 l 172 409 l 172 589 l 984 589 "},"ù":{"x_min":89,"x_max":1072,"ha":1164,"o":"m 725 80 q 580 7 655 31 q 417 -16 504 -16 q 167 71 246 -16 q 89 346 89 158 l 89 778 l 436 778 l 436 411 q 463 291 436 324 q 560 259 491 259 q 681 295 637 259 q 725 396 725 332 l 725 778 l 1072 778 l 1072 0 l 725 0 l 725 80 m 428 880 l 223 1093 l 631 1093 l 759 880 l 428 880 "},"ï":{"x_min":-40,"x_max":600,"ha":561,"o":"m 104 0 l 104 778 l 458 778 l 458 0 l 104 0 m 323 887 l 323 1084 l 600 1084 l 600 887 l 323 887 m -40 887 l -40 1084 l 236 1084 l 236 887 l -40 887 "},"Ò":{"x_min":52,"x_max":1402,"ha":1453,"o":"m 470 500 q 536 301 470 370 q 727 232 602 232 q 917 301 851 232 q 984 500 984 370 q 917 702 984 632 q 727 772 851 772 q 536 702 602 772 q 470 500 470 632 m 52 501 q 222 895 52 762 q 727 1029 392 1029 q 1231 895 1061 1029 q 1402 501 1402 762 q 1231 107 1402 240 q 727 -26 1061 -26 q 222 107 392 -26 q 52 501 52 240 m 572 1105 l 367 1318 l 775 1318 l 903 1105 l 572 1105 "},"&":{"x_min":65,"x_max":1473,"ha":1457,"o":"m 692 693 q 761 731 737 708 q 785 781 785 753 q 761 824 785 808 q 697 841 737 841 q 634 827 656 841 q 612 788 612 813 q 632 741 612 765 q 692 693 652 718 m 741 242 l 512 453 q 460 406 477 433 q 444 344 444 379 q 493 245 444 286 q 613 204 542 204 q 677 213 645 204 q 741 242 708 223 m 1000 0 l 921 77 q 728 -4 834 22 q 495 -31 622 -31 q 183 60 301 -31 q 65 298 65 151 q 139 502 65 419 q 344 607 214 585 q 280 678 302 636 q 258 774 258 721 q 363 957 258 893 q 666 1021 468 1021 q 979 956 868 1021 q 1090 774 1090 891 q 1026 628 1090 683 q 842 560 962 573 l 1011 409 q 1119 492 1066 443 q 1220 605 1172 541 l 1390 453 q 1303 349 1351 399 q 1193 251 1254 299 l 1473 0 l 1000 0 "},"":{"x_min":-29,"x_max":1324,"ha":1328,"o":"m 12 441 l 112 441 q 111 458 111 449 q 111 487 111 468 l 111 510 l -26 510 l 15 579 l 116 579 q 305 895 144 787 q 748 1003 466 1003 q 1129 905 975 1003 q 1324 640 1284 808 l 928 640 q 846 721 898 691 q 730 751 793 751 q 579 706 638 751 q 501 579 519 661 l 959 579 l 917 510 l 493 510 l 493 488 q 493 458 493 468 q 495 441 494 448 l 870 440 l 827 372 l 509 372 q 590 264 532 302 q 730 226 648 226 q 831 247 785 226 q 909 308 878 268 l 1317 308 q 1115 61 1264 149 q 748 -26 966 -26 q 317 75 477 -26 q 120 372 157 177 l -29 372 l 12 441 "},"˝":{"x_min":0,"x_max":791,"ha":694,"o":"m 0 895 l 141 1078 l 413 1078 l 201 895 l 0 895 m 328 895 l 504 1078 l 791 1078 l 544 895 l 328 895 "},"I":{"x_min":110,"x_max":499,"ha":607,"o":"m 110 0 l 110 1003 l 499 1003 l 499 0 l 110 0 "},"G":{"x_min":52,"x_max":1383,"ha":1459,"o":"m 1165 89 q 991 1 1097 29 q 726 -26 885 -26 q 222 107 392 -26 q 52 501 52 240 q 222 895 52 762 q 726 1029 392 1029 q 1178 933 1008 1029 q 1370 668 1347 838 l 944 668 q 861 758 912 728 q 737 788 810 788 q 543 710 616 788 q 470 501 470 632 q 542 295 470 368 q 743 222 614 222 q 905 257 840 222 q 984 353 969 292 l 823 353 l 823 570 l 1383 570 l 1383 0 l 1207 0 l 1165 89 "},"`":{"x_min":-12,"x_max":524,"ha":694,"o":"m 193 880 l -12 1093 l 396 1093 l 524 880 l 193 880 "},"·":{"x_min":136,"x_max":527,"ha":664,"o":"m 136 489 q 192 628 136 571 q 331 685 249 685 q 470 628 413 685 q 527 489 527 571 q 470 349 527 406 q 331 293 413 293 q 192 349 249 293 q 136 489 136 406 "},"¿":{"x_min":20,"x_max":1145,"ha":1183,"o":"m 765 615 l 765 598 q 732 486 765 529 q 620 411 699 443 q 540 384 590 399 q 474 359 490 369 q 439 325 450 344 q 428 281 428 306 q 464 220 428 241 q 569 199 500 199 q 706 237 660 199 q 753 353 753 276 l 753 360 l 1145 360 q 1011 66 1145 158 q 584 -26 877 -26 q 158 48 296 -26 q 20 276 20 122 q 64 416 20 363 q 224 515 108 469 q 282 537 244 523 q 403 615 386 573 l 765 615 m 765 1004 l 765 682 l 403 682 l 403 1004 l 765 1004 "},"ý":{"x_min":-40,"x_max":1040,"ha":1003,"o":"m 83 -10 l 160 -10 q 267 15 233 -10 q 317 109 301 41 l -40 778 l 338 778 l 465 501 q 492 437 481 467 q 509 377 503 406 q 524 426 515 400 q 545 482 533 452 l 670 778 l 1040 778 l 711 105 q 617 -71 656 -6 q 552 -162 579 -135 q 460 -220 509 -203 q 324 -237 410 -237 l 83 -237 l 83 -10 m 325 880 l 452 1093 l 861 1093 l 655 880 l 325 880 "},"º":{"x_min":32,"x_max":851,"ha":882,"o":"m 307 730 q 342 641 307 674 q 439 608 378 608 q 538 641 502 608 q 575 730 575 674 q 538 820 575 787 q 439 853 502 853 q 342 819 378 853 q 307 730 307 786 m 32 730 q 138 945 32 869 q 441 1021 245 1021 q 744 945 637 1021 q 851 730 851 869 q 744 516 851 592 q 441 440 637 440 q 138 516 245 440 q 32 730 32 592 "},"∞":{"x_min":123,"x_max":1034,"ha":1157,"o":"m 660 380 q 725 321 687 341 q 809 302 762 302 q 902 331 866 302 q 938 404 938 360 q 905 478 938 448 q 826 509 872 509 q 742 479 781 509 q 660 380 704 449 m 495 442 q 430 501 467 481 q 346 521 394 521 q 254 491 289 521 q 219 416 219 462 q 251 343 219 373 q 330 314 283 314 q 414 343 376 314 q 495 442 452 373 m 579 536 q 680 665 626 623 q 799 708 735 708 q 965 622 896 708 q 1034 410 1034 537 q 972 197 1034 279 q 814 115 911 115 q 703 150 754 115 q 575 287 651 186 q 476 157 530 199 q 357 115 422 115 q 191 200 259 115 q 123 412 123 285 q 183 626 123 544 q 341 708 244 708 q 450 672 398 708 q 579 536 501 636 "},";":{"x_min":123,"x_max":487,"ha":611,"o":"m 123 457 l 123 778 l 487 778 l 487 457 l 123 457 m 123 0 l 123 321 l 487 321 l 487 108 q 468 -24 487 21 q 403 -105 449 -70 q 301 -167 360 -139 q 169 -216 243 -195 l 138 -88 q 206 -52 185 -73 q 228 0 227 -31 l 123 0 "},"6":{"x_min":62,"x_max":1276,"ha":1328,"o":"m 481 316 q 529 242 481 266 q 677 218 577 218 q 823 242 775 218 q 872 316 872 266 q 823 390 872 366 q 677 415 775 415 q 529 390 577 415 q 481 316 481 366 m 445 585 q 586 629 512 615 q 745 644 660 644 q 1140 560 1004 644 q 1276 316 1276 476 q 1134 58 1276 144 q 712 -28 992 -28 q 216 94 371 -28 q 62 485 62 216 q 214 876 62 748 q 683 1004 367 1004 q 1101 926 957 1004 q 1264 693 1245 849 l 869 693 q 818 743 860 727 q 695 759 776 759 q 521 716 583 759 q 445 585 459 673 "},"n":{"x_min":92,"x_max":1075,"ha":1164,"o":"m 92 0 l 92 778 l 439 778 l 439 697 q 584 769 508 746 q 746 793 659 793 q 996 706 917 793 q 1075 430 1075 619 l 1075 0 l 728 0 l 728 365 q 700 485 728 452 q 603 518 672 518 q 482 481 526 518 q 439 380 439 444 l 439 0 l 92 0 "},"¤":{"x_min":-29,"x_max":1324,"ha":1328,"o":"m 12 441 l 112 441 q 111 458 111 449 q 111 487 111 468 l 111 510 l -26 510 l 15 579 l 116 579 q 305 895 144 787 q 748 1003 466 1003 q 1129 905 975 1003 q 1324 640 1284 808 l 928 640 q 846 721 898 691 q 730 751 793 751 q 579 706 638 751 q 501 579 519 661 l 959 579 l 917 510 l 493 510 l 493 488 q 493 458 493 468 q 495 441 494 448 l 870 440 l 827 372 l 509 372 q 590 264 532 302 q 730 226 648 226 q 831 247 785 226 q 909 308 878 268 l 1317 308 q 1115 61 1264 149 q 748 -26 966 -26 q 317 75 477 -26 q 120 372 157 177 l -29 372 l 12 441 "},"∂":{"x_min":25,"x_max":745,"ha":772,"o":"m 522 485 q 546 627 539 571 q 553 729 553 684 q 535 837 553 800 q 482 874 517 874 q 443 859 460 874 q 408 811 426 845 q 346 730 378 757 q 277 704 313 704 q 207 729 235 704 q 180 794 180 755 q 249 894 180 853 q 419 936 319 936 q 658 825 571 936 q 745 520 745 715 q 631 134 745 284 q 337 -16 517 -16 q 108 62 191 -16 q 25 278 25 140 q 110 509 25 416 q 319 602 196 602 q 436 572 384 602 q 522 485 487 542 m 471 375 q 447 492 471 452 q 380 532 424 532 q 278 436 319 532 q 237 196 237 341 q 260 79 237 118 q 328 40 283 40 q 430 135 390 40 q 471 375 471 230 "},"p":{"x_min":94,"x_max":1162,"ha":1206,"o":"m 441 388 q 489 263 441 310 q 618 216 538 216 q 748 263 700 216 q 797 388 797 310 q 748 514 797 467 q 618 561 700 561 q 489 514 538 561 q 441 388 441 467 m 94 -252 l 94 778 l 424 778 l 427 702 q 565 774 489 750 q 735 798 642 798 q 1046 686 930 798 q 1162 388 1162 574 q 1045 90 1162 201 q 729 -20 928 -20 q 574 0 645 -20 q 441 63 504 21 l 441 -252 l 94 -252 "},"‡":{"x_min":135,"x_max":1185,"ha":1320,"o":"m 840 290 l 1183 290 l 1183 -19 l 840 -19 l 840 -212 l 479 -212 l 479 -19 l 135 -19 l 135 290 l 481 290 l 481 501 l 136 501 l 136 810 l 481 810 l 481 1003 l 840 1003 l 840 810 l 1185 810 l 1185 501 l 840 501 l 840 290 "},"√":{"x_min":57,"x_max":949,"ha":946,"o":"m 949 1178 l 949 1061 l 890 1061 l 491 -28 l 394 -28 l 190 532 l 84 492 l 57 597 l 324 691 l 466 284 l 794 1178 l 949 1178 "},"S":{"x_min":46.96875,"x_max":1312,"ha":1360,"o":"m 46 305 l 517 305 q 568 243 523 265 q 692 221 613 221 q 810 238 771 221 q 849 292 849 256 q 815 343 849 324 q 710 372 781 363 l 420 408 q 149 504 240 429 q 58 706 58 580 q 196 951 58 874 q 636 1029 334 1029 q 1102 951 949 1029 q 1267 711 1254 874 l 814 711 q 757 782 806 758 q 618 807 708 807 q 516 788 553 807 q 479 740 479 770 q 507 696 479 711 q 627 668 536 681 l 981 618 q 1229 522 1147 595 q 1312 325 1312 449 q 1147 55 1312 141 q 630 -31 983 -31 q 199 55 349 -31 q 46 305 49 142 "},"/":{"x_min":-50,"x_max":665,"ha":663,"o":"m -50 -129 l 492 1029 l 665 1029 l 126 -129 l -50 -129 "},"y":{"x_min":-40,"x_max":1040,"ha":1003,"o":"m 83 -10 l 160 -10 q 267 15 233 -10 q 317 109 301 41 l -40 778 l 338 778 l 465 501 q 492 437 481 467 q 509 377 503 406 q 524 426 515 400 q 545 482 533 452 l 670 778 l 1040 778 l 711 105 q 617 -71 656 -6 q 552 -162 579 -135 q 460 -220 509 -203 q 324 -237 410 -237 l 83 -237 l 83 -10 "},"≈":{"x_min":121,"x_max":1038,"ha":1157,"o":"m 1038 208 q 905 140 966 162 q 785 119 844 119 q 595 162 726 119 q 380 206 464 206 q 263 180 325 206 q 121 98 202 155 l 121 302 q 265 375 199 352 q 399 398 331 398 q 608 354 479 398 q 790 311 736 311 q 905 334 846 311 q 1038 411 963 357 l 1038 208 m 1038 524 q 905 455 966 476 q 786 434 845 434 q 595 478 726 434 q 380 522 464 522 q 263 497 323 522 q 121 415 203 472 l 121 618 q 266 691 199 668 q 399 714 332 714 q 608 670 479 714 q 790 627 736 627 q 906 650 848 627 q 1038 728 965 674 l 1038 524 "},"g":{"x_min":43,"x_max":1111,"ha":1206,"o":"m 409 416 q 457 310 409 350 q 586 271 505 271 q 715 310 667 271 q 763 416 763 350 q 715 523 763 483 q 586 564 666 564 q 457 523 506 564 q 409 416 409 483 m 1111 172 q 1104 24 1111 70 q 1080 -51 1097 -22 q 893 -208 1016 -158 q 568 -258 771 -258 q 212 -195 334 -258 q 65 -1 90 -133 l 530 -1 q 560 -38 538 -26 q 619 -50 581 -50 q 731 -16 697 -50 q 765 96 765 17 q 764 121 765 112 q 763 137 764 129 q 630 73 705 94 q 458 52 554 52 q 155 153 268 52 q 43 424 43 254 q 156 695 43 593 q 459 798 270 798 q 638 774 559 798 q 777 702 716 751 l 780 778 l 1111 778 l 1111 172 "},"²":{"x_min":17,"x_max":838,"ha":876,"o":"m 17 389 q 98 605 23 530 q 342 717 172 680 q 437 736 378 724 q 569 795 569 760 q 540 830 569 818 q 458 842 512 842 q 351 822 385 842 q 317 762 317 803 l 317 761 l 40 761 q 144 933 45 876 q 437 991 242 991 q 737 942 636 991 q 838 799 838 894 q 788 684 838 726 q 619 618 738 642 q 500 597 576 609 q 295 538 334 571 l 824 538 l 824 389 l 17 389 "},"ë":{"x_min":41,"x_max":1165,"ha":1204,"o":"m 396 474 l 808 474 q 749 573 800 538 q 613 609 698 609 q 465 574 521 609 q 396 474 409 539 m 1158 237 q 975 40 1118 107 q 594 -26 832 -26 q 185 82 329 -26 q 41 388 41 190 q 185 695 41 587 q 594 804 329 804 q 1020 681 875 804 q 1165 321 1165 559 l 1165 308 l 413 308 q 465 211 413 245 q 614 177 518 177 q 719 192 677 177 q 780 237 761 207 l 1158 237 m 645 887 l 645 1084 l 922 1084 l 922 887 l 645 887 m 282 887 l 282 1084 l 558 1084 l 558 887 l 282 887 "},"–":{"x_min":0,"x_max":694,"ha":694,"o":"m 0 285 l 0 510 l 694 510 l 694 285 l 0 285 "},"ƒ":{"x_min":215,"x_max":1111,"ha":1328,"o":"m 762 -16 q 655 -239 727 -181 q 426 -297 584 -297 q 330 -290 382 -297 q 215 -270 279 -284 l 255 -83 l 320 -83 q 384 -67 366 -83 q 412 -5 402 -52 l 494 397 l 358 397 l 396 576 l 533 576 l 563 723 q 670 944 598 886 q 900 1003 742 1003 q 995 996 943 1003 q 1111 976 1047 990 l 1072 790 l 1007 790 q 943 774 962 790 q 915 711 925 758 l 890 576 l 1025 576 l 986 397 l 851 397 l 762 -16 "},"J":{"x_min":22,"x_max":1044,"ha":1125,"o":"m 22 429 l 412 429 l 412 414 q 441 280 412 323 q 531 237 470 237 q 627 278 600 237 q 655 446 655 319 l 655 1003 l 1044 1003 l 1044 486 q 1028 239 1044 310 q 974 117 1012 167 q 813 8 919 45 q 553 -28 707 -28 q 145 67 268 -28 q 22 382 22 163 l 22 429 "},"Ã":{"x_min":-40,"x_max":1293,"ha":1254,"o":"m 503 346 l 752 346 l 631 698 l 503 346 m -40 0 l 394 1003 l 887 1003 l 1293 0 l 871 0 l 838 98 l 412 98 l 376 0 l -40 0 m 275 1107 q 342 1267 287 1212 q 487 1323 397 1323 q 630 1297 553 1323 q 723 1271 707 1271 q 764 1285 749 1271 q 780 1323 779 1299 l 1006 1323 q 938 1162 993 1217 q 792 1107 883 1107 q 650 1133 727 1107 q 556 1159 573 1159 q 516 1145 531 1159 q 499 1107 501 1131 l 275 1107 "},"©":{"x_min":69,"x_max":1088,"ha":1157,"o":"m 668 597 q 642 664 666 639 q 579 689 618 689 q 502 640 530 689 q 474 504 474 592 q 501 371 474 415 q 585 327 529 327 q 647 351 625 327 q 671 424 668 376 l 839 424 q 765 263 834 323 q 581 204 695 204 q 373 282 449 204 q 298 499 298 361 q 373 718 298 634 q 568 802 448 802 q 757 747 688 802 q 832 597 826 693 l 668 597 m 984 502 q 953 657 984 583 q 866 788 922 731 q 734 877 807 847 q 578 908 661 908 q 422 878 495 908 q 293 791 349 849 q 204 657 235 732 q 173 502 173 583 q 203 348 173 421 q 292 217 234 274 q 423 127 350 158 q 578 97 497 97 q 733 128 659 97 q 867 218 807 159 q 954 346 925 274 q 984 502 984 419 m 577 1012 q 775 974 682 1012 q 940 863 868 936 q 1049 698 1011 792 q 1088 502 1088 605 q 1050 306 1088 397 q 940 145 1012 215 q 771 32 865 72 q 577 -7 677 -7 q 384 31 476 -7 q 219 144 293 70 q 107 308 146 216 q 69 502 69 401 q 107 698 69 604 q 220 866 146 791 q 382 974 290 937 q 577 1012 473 1012 "},"˘":{"x_min":25,"x_max":669,"ha":694,"o":"m 25 1100 l 268 1100 l 268 1091 q 289 1044 268 1061 q 347 1028 310 1028 q 406 1044 386 1028 q 426 1095 426 1061 l 426 1100 l 669 1100 q 572 935 657 994 q 347 877 487 877 q 121 935 206 877 q 25 1100 36 994 "},"≥":{"x_min":172,"x_max":986,"ha":1157,"o":"m 986 160 l 986 -24 l 172 -24 l 172 160 l 986 160 m 984 616 l 984 455 l 173 204 l 173 394 l 651 536 l 173 677 l 173 869 l 984 616 "},"D":{"x_min":110,"x_max":1392,"ha":1446,"o":"m 499 755 l 499 267 l 692 267 q 908 324 843 267 q 974 511 974 381 q 907 697 974 640 q 692 755 841 755 l 499 755 m 110 1004 l 753 1004 q 1228 875 1065 1004 q 1392 500 1392 747 q 1229 127 1392 255 q 753 0 1066 0 l 110 0 l 110 1004 "},"ÿ":{"x_min":-40,"x_max":1040,"ha":1003,"o":"m 83 -10 l 160 -10 q 267 15 233 -10 q 317 109 301 41 l -40 778 l 338 778 l 465 501 q 492 437 481 467 q 509 377 503 406 q 524 426 515 400 q 545 482 533 452 l 670 778 l 1040 778 l 711 105 q 617 -71 656 -6 q 552 -162 579 -135 q 460 -220 509 -203 q 324 -237 410 -237 l 83 -237 l 83 -10 m 543 887 l 543 1084 l 820 1084 l 820 887 l 543 887 m 180 887 l 180 1084 l 456 1084 l 456 887 l 180 887 "},"ł":{"x_min":-30,"x_max":612,"ha":581,"o":"m 114 0 l 114 369 l 29 311 l -30 404 l 114 503 l 114 1011 l 468 1011 l 468 696 l 552 754 l 612 661 l 468 559 l 468 0 l 114 0 "},"Ł":{"x_min":-54,"x_max":1125,"ha":1136,"o":"m 122 0 l 122 337 l 37 279 l -54 409 l 122 530 l 122 1003 l 511 1003 l 511 736 l 724 885 l 815 755 l 511 543 l 511 275 l 1125 275 l 1125 0 l 122 0 "},"$":{"x_min":88.6875,"x_max":1239,"ha":1328,"o":"m 615 636 l 615 765 q 529 748 558 765 q 501 700 501 732 q 527 652 501 667 q 615 636 554 637 m 707 230 q 793 248 764 231 q 822 298 822 265 q 793 350 822 332 q 712 368 765 368 l 706 368 l 707 230 m 590 -103 l 590 0 l 565 0 q 227 83 349 0 q 88 326 105 167 l 503 326 q 537 257 510 279 q 615 233 564 234 l 615 377 q 206 465 319 401 q 94 666 94 530 q 222 891 94 810 q 590 978 351 971 l 590 1068 l 733 1068 l 733 978 q 1076 898 960 973 q 1208 671 1193 822 l 811 671 q 779 734 805 712 q 707 759 754 756 l 706 625 q 1118 542 998 609 q 1239 330 1239 474 q 1111 87 1239 170 q 733 0 983 4 l 733 -103 l 590 -103 "},"w":{"x_min":-10,"x_max":1634,"ha":1625,"o":"m 254 0 l -10 778 l 366 778 l 458 444 q 474 371 466 413 q 491 278 483 329 q 536 409 501 318 l 541 421 l 678 778 l 938 778 l 1080 423 q 1099 371 1088 402 q 1122 298 1109 340 q 1132 353 1125 322 q 1158 444 1140 383 l 1256 778 l 1634 778 l 1364 0 l 966 0 l 838 316 q 820 367 828 341 q 805 423 811 394 q 791 368 798 393 q 774 322 783 343 l 644 0 l 254 0 "},"\\":{"x_min":-50,"x_max":665,"ha":663,"o":"m 665 -129 l 488 -129 l -50 1029 l 122 1029 l 665 -129 "},"∫":{"x_min":35,"x_max":871,"ha":903,"o":"m 257 -166 q 293 -137 276 -166 q 322 -60 311 -109 q 339 200 335 2 q 346 399 342 326 q 443 903 361 749 q 693 1057 525 1057 q 822 1017 773 1057 q 871 915 871 977 q 839 838 871 868 q 761 809 808 809 q 692 836 715 809 q 669 918 669 864 q 670 925 669 919 q 671 935 671 931 q 665 961 671 953 q 647 970 659 970 q 562 521 577 970 q 560 461 560 482 q 535 133 552 235 q 485 -47 518 31 q 372 -201 441 -149 q 211 -253 303 -253 q 83 -214 131 -253 q 35 -111 35 -175 q 65 -33 35 -62 q 147 -5 95 -5 q 212 -30 189 -5 q 236 -101 236 -56 q 235 -122 236 -110 q 234 -138 234 -134 q 240 -158 234 -151 q 257 -166 246 -166 "},"Ì":{"x_min":-55,"x_max":499,"ha":607,"o":"m 110 0 l 110 1003 l 499 1003 l 499 0 l 110 0 m 150 1105 l -55 1318 l 353 1318 l 481 1105 l 150 1105 "},"Ç":{"x_min":52,"x_max":1394,"ha":1428,"o":"m 947 581 q 881 723 937 674 q 727 772 824 772 q 536 702 602 772 q 470 500 470 632 q 536 301 470 370 q 727 232 602 232 q 873 273 817 232 q 946 395 928 314 l 1394 395 q 1194 80 1363 186 q 727 -26 1024 -26 q 222 107 392 -26 q 52 501 52 240 q 222 895 52 762 q 726 1029 392 1029 q 1209 913 1038 1029 q 1391 581 1380 797 l 947 581 m 755 0 l 856 0 l 795 -86 q 839 -77 820 -80 q 875 -75 859 -75 q 975 -107 939 -75 q 1012 -197 1012 -140 q 963 -295 1012 -262 q 818 -328 914 -328 q 707 -315 769 -328 q 573 -277 645 -302 l 605 -204 q 695 -231 654 -222 q 760 -241 735 -241 q 809 -227 791 -241 q 827 -191 827 -214 q 813 -164 827 -176 q 783 -151 799 -151 q 759 -155 771 -151 q 735 -169 748 -160 l 683 -134 l 755 0 "},"C":{"x_min":52,"x_max":1394,"ha":1428,"o":"m 947 581 q 881 723 937 674 q 727 772 824 772 q 536 702 602 772 q 470 500 470 632 q 536 301 470 370 q 727 232 602 232 q 873 273 817 232 q 946 395 928 314 l 1394 395 q 1194 80 1363 186 q 727 -26 1024 -26 q 222 107 392 -26 q 52 501 52 240 q 222 895 52 762 q 726 1029 392 1029 q 1209 913 1038 1029 q 1391 581 1380 797 l 947 581 "},"!":{"x_min":111,"x_max":498,"ha":611,"o":"m 146 390 l 111 1003 l 498 1003 l 463 390 l 146 390 m 123 0 l 123 321 l 487 321 l 487 0 l 123 0 "},"ç":{"x_min":41,"x_max":1154,"ha":1198,"o":"m 1154 342 q 995 66 1135 158 q 598 -26 856 -26 q 186 82 331 -26 q 41 388 41 190 q 186 694 41 585 q 598 804 331 804 q 984 719 846 804 q 1147 468 1122 634 l 774 468 q 711 548 753 521 q 606 575 669 575 q 460 525 513 575 q 408 389 408 476 q 459 256 408 305 q 598 207 511 207 q 720 243 671 207 q 783 342 770 279 l 1154 342 m 463 0 l 564 0 l 503 -86 q 547 -77 528 -80 q 583 -75 567 -75 q 683 -107 647 -75 q 720 -197 720 -140 q 671 -295 720 -262 q 526 -328 622 -328 q 415 -315 477 -328 q 281 -277 353 -302 l 313 -204 q 403 -231 362 -222 q 468 -241 443 -241 q 517 -227 499 -241 q 535 -191 535 -214 q 521 -164 535 -176 q 491 -151 507 -151 q 467 -155 479 -151 q 443 -169 456 -160 l 391 -134 l 463 0 "},"È":{"x_min":110,"x_max":1206,"ha":1221,"o":"m 110 0 l 110 1003 l 1173 1003 l 1173 757 l 499 757 l 499 638 l 1045 638 l 1045 390 l 499 390 l 499 258 l 1206 258 l 1206 0 l 110 0 m 486 1105 l 281 1318 l 689 1318 l 817 1105 l 486 1105 "},"X":{"x_min":-35,"x_max":1298,"ha":1254,"o":"m -35 0 l 412 528 l 29 1003 l 498 1003 l 635 785 l 784 1003 l 1248 1003 l 859 528 l 1298 0 l 812 0 l 633 269 l 449 0 l -35 0 "},"ô":{"x_min":41,"x_max":1134,"ha":1177,"o":"m 408 388 q 456 261 408 308 q 587 214 504 214 q 717 261 669 214 q 766 388 766 308 q 717 515 766 468 q 587 563 669 563 q 456 515 504 563 q 408 388 408 468 m 41 388 q 184 695 41 586 q 588 804 327 804 q 991 695 849 804 q 1134 388 1134 587 q 991 82 1134 190 q 588 -26 849 -26 q 184 82 327 -26 q 41 388 41 190 m 787 1092 l 1001 879 l 657 879 l 588 979 l 519 879 l 176 879 l 396 1092 l 787 1092 "},"đ":{"x_min":43,"x_max":1206,"ha":1213,"o":"m 764 379 q 715 503 764 456 q 586 551 667 551 q 457 503 506 551 q 409 379 409 456 q 457 254 409 301 q 586 207 506 207 q 715 254 667 207 q 764 379 764 301 m 1111 1011 l 1111 937 l 1206 937 l 1206 825 l 1111 825 l 1111 0 l 780 0 l 778 76 q 637 3 713 27 q 469 -20 561 -20 q 160 90 277 -20 q 43 380 43 200 q 161 669 43 560 q 475 779 279 779 q 629 758 559 779 q 764 694 700 737 l 764 825 l 460 825 l 460 937 l 764 937 l 764 1011 l 1111 1011 "},"}":{"x_min":82,"x_max":598,"ha":694,"o":"m 435 786 l 435 612 q 466 491 435 526 q 574 456 498 456 q 585 457 577 456 q 598 458 593 458 l 598 265 q 585 265 593 265 q 574 266 577 266 q 466 231 498 266 q 435 109 435 195 l 435 -64 q 418 -191 435 -153 q 359 -250 401 -229 q 281 -273 329 -266 q 145 -280 234 -280 l 82 -280 l 82 -87 q 97 -87 88 -87 q 111 -88 107 -88 q 190 -68 170 -88 q 211 18 211 -47 l 211 181 q 242 308 211 271 q 358 361 274 345 q 242 413 274 376 q 211 541 211 450 l 211 703 q 190 790 211 769 q 111 810 170 810 q 97 809 107 810 q 82 809 88 809 l 82 1002 l 136 1002 q 278 994 229 1002 q 359 971 327 987 q 418 912 401 950 q 435 786 435 874 "},"â":{"x_min":28,"x_max":1184,"ha":1238,"o":"m 797 362 q 612 327 743 335 q 554 323 574 325 q 450 300 477 316 q 423 252 423 284 q 455 195 423 215 q 548 175 488 175 q 731 221 663 175 q 800 343 800 267 q 799 355 800 352 q 797 362 799 359 m 799 106 q 642 6 734 38 q 409 -25 550 -25 q 123 38 219 -25 q 28 230 28 102 q 38 308 28 272 q 69 370 49 344 q 176 443 109 419 q 427 480 242 467 q 586 487 488 484 q 783 541 783 495 q 741 592 783 573 q 629 612 700 612 q 498 594 537 612 q 452 535 458 577 l 93 535 q 225 737 103 676 q 626 799 347 799 q 883 777 779 799 q 1041 714 988 756 q 1124 604 1100 668 q 1149 421 1149 540 l 1149 120 q 1156 53 1149 77 q 1184 16 1164 30 l 1184 0 l 821 0 q 806 49 812 23 q 799 106 800 76 m 832 1092 l 1046 879 l 702 879 l 633 979 l 564 879 l 221 879 l 441 1092 l 832 1092 "},"ø":{"x_min":38.3125,"x_max":1134,"ha":1177,"o":"m 413 318 l 696 539 q 644 561 671 554 q 588 569 618 569 q 454 520 504 569 q 404 390 404 471 q 406 353 404 371 q 413 318 408 335 m 760 463 l 474 240 q 530 216 502 224 q 588 209 558 209 q 722 257 672 209 q 772 388 772 306 q 769 429 772 410 q 760 463 766 447 m 145 118 q 66 242 92 175 q 41 388 41 308 q 184 695 41 586 q 588 804 327 804 q 785 786 699 804 q 935 732 871 768 l 1062 833 l 1129 745 l 1027 663 q 1107 539 1080 607 q 1134 388 1134 470 q 991 82 1134 190 q 588 -26 849 -26 q 388 -7 475 -26 q 235 48 301 10 l 105 -56 l 38 30 l 145 118 "},"Ä":{"x_min":-40,"x_max":1293,"ha":1254,"o":"m 503 346 l 752 346 l 631 698 l 503 346 m -40 0 l 394 1003 l 887 1003 l 1293 0 l 871 0 l 838 98 l 412 98 l 376 0 l -40 0 m 682 1112 l 682 1309 l 959 1309 l 959 1112 l 682 1112 m 319 1112 l 319 1309 l 595 1309 l 595 1112 l 319 1112 "},"‰":{"x_min":52,"x_max":2270,"ha":2321,"o":"m 1924 375 q 1829 339 1864 375 q 1794 243 1794 304 q 1828 147 1794 182 q 1924 112 1863 112 q 2020 147 1985 112 q 2055 243 2055 182 q 2020 339 2055 304 q 1924 375 1985 375 m 1580 243 q 1669 442 1580 371 q 1923 513 1759 513 q 2179 442 2089 513 q 2270 243 2270 371 q 2179 44 2270 115 q 1923 -26 2089 -26 q 1669 44 1759 -26 q 1580 243 1580 115 m 1176 375 q 1081 339 1116 375 q 1046 243 1046 304 q 1080 147 1046 182 q 1176 112 1115 112 q 1272 147 1236 112 q 1308 243 1308 182 q 1272 339 1308 304 q 1176 375 1236 375 m 832 243 q 922 442 832 371 q 1177 513 1012 513 q 1431 442 1341 513 q 1522 243 1522 371 q 1431 44 1522 115 q 1177 -26 1341 -26 q 922 44 1012 -26 q 832 243 832 115 m 296 -26 l 1116 1003 l 1277 1003 l 457 -26 l 296 -26 m 396 867 q 301 830 337 867 q 266 733 266 794 q 300 637 266 672 q 396 603 335 603 q 492 637 457 603 q 528 733 528 672 q 492 831 528 795 q 396 867 456 867 m 52 734 q 142 932 52 862 q 397 1003 232 1003 q 652 932 562 1003 q 742 734 742 862 q 651 534 742 605 q 397 464 561 464 q 142 535 232 464 q 52 734 52 606 "},"N":{"x_min":109,"x_max":1332,"ha":1442,"o":"m 109 0 l 109 1003 l 568 1003 l 956 425 l 956 1003 l 1332 1003 l 1332 0 l 896 0 l 475 587 l 475 0 l 109 0 "},"—":{"x_min":0,"x_max":1389,"ha":1389,"o":"m 0 285 l 0 510 l 1389 510 l 1389 285 l 0 285 "},"2":{"x_min":25,"x_max":1268,"ha":1328,"o":"m 25 0 q 148 360 35 235 q 518 546 261 485 q 661 578 571 559 q 860 675 860 618 q 817 735 860 715 q 694 755 775 755 q 532 722 584 755 q 481 622 481 690 l 481 619 l 61 619 q 219 907 69 811 q 663 1003 369 1003 q 1116 922 964 1003 q 1268 682 1268 841 q 1192 490 1268 560 q 937 381 1116 421 q 753 346 870 367 q 449 249 505 302 l 1247 249 l 1247 0 l 25 0 "},"ü":{"x_min":89,"x_max":1072,"ha":1164,"o":"m 725 80 q 580 7 655 31 q 417 -16 504 -16 q 167 71 246 -16 q 89 346 89 158 l 89 778 l 436 778 l 436 411 q 463 291 436 324 q 560 259 491 259 q 681 295 637 259 q 725 396 725 332 l 725 778 l 1072 778 l 1072 0 l 725 0 l 725 80 m 624 887 l 624 1084 l 901 1084 l 901 887 l 624 887 m 261 887 l 261 1084 l 537 1084 l 537 887 l 261 887 "},"":{"x_min":0,"x_max":1076,"ha":1179,"o":"m 723 0 l 723 1011 l 1076 1011 l 1076 0 l 723 0 m 129 0 l 129 553 l 0 553 l 0 771 l 129 771 q 127 786 128 778 q 127 811 127 794 q 192 980 127 929 q 413 1031 257 1031 q 490 1029 444 1031 q 620 1023 537 1027 l 620 840 l 545 840 q 491 826 507 840 q 475 780 475 812 l 475 771 l 620 771 l 620 553 l 482 553 l 482 0 l 129 0 "},"Ó":{"x_min":52,"x_max":1402,"ha":1453,"o":"m 470 500 q 536 301 470 370 q 727 232 602 232 q 917 301 851 232 q 984 500 984 370 q 917 702 984 632 q 727 772 851 772 q 536 702 602 772 q 470 500 470 632 m 52 501 q 222 895 52 762 q 727 1029 392 1029 q 1231 895 1061 1029 q 1402 501 1402 762 q 1231 107 1402 240 q 727 -26 1061 -26 q 222 107 392 -26 q 52 501 52 240 m 550 1105 l 677 1318 l 1086 1318 l 880 1105 l 550 1105 "},"˜":{"x_min":-18,"x_max":713,"ha":694,"o":"m -18 882 q 49 1042 -5 987 q 194 1098 104 1098 q 337 1072 260 1098 q 430 1046 414 1046 q 471 1060 456 1046 q 487 1098 486 1074 l 713 1098 q 645 937 700 992 q 499 882 590 882 q 357 908 434 882 q 263 934 280 934 q 223 920 238 934 q 206 882 208 906 l -18 882 "},"ˇ":{"x_min":-65,"x_max":760,"ha":694,"o":"m 148 880 l -65 1093 l 278 1093 l 347 993 l 416 1093 l 760 1093 l 539 880 l 148 880 "},"Ÿ":{"x_min":-60,"x_max":1216,"ha":1157,"o":"m 380 0 l 380 283 l -60 1003 l 396 1003 l 577 590 l 769 1003 l 1216 1003 l 769 283 l 769 0 l 380 0 m 621 1112 l 621 1309 l 898 1309 l 898 1112 l 621 1112 m 258 1112 l 258 1309 l 534 1309 l 534 1112 l 258 1112 "},"€":{"x_min":-29,"x_max":1324,"ha":1328,"o":"m 12 441 l 112 441 q 111 458 111 449 q 111 487 111 468 l 111 510 l -26 510 l 15 579 l 116 579 q 305 895 144 787 q 748 1003 466 1003 q 1129 905 975 1003 q 1324 640 1284 808 l 928 640 q 846 721 898 691 q 730 751 793 751 q 579 706 638 751 q 501 579 519 661 l 959 579 l 917 510 l 493 510 l 493 488 q 493 458 493 468 q 495 441 494 448 l 870 440 l 827 372 l 509 372 q 590 264 532 302 q 730 226 648 226 q 831 247 785 226 q 909 308 878 268 l 1317 308 q 1115 61 1264 149 q 748 -26 966 -26 q 317 75 477 -26 q 120 372 157 177 l -29 372 l 12 441 "},"ß":{"x_min":92,"x_max":1217,"ha":1265,"o":"m 92 0 l 92 641 q 122 833 92 766 q 226 951 153 900 q 394 1014 286 992 q 652 1036 502 1036 q 1034 970 912 1036 q 1156 764 1156 904 q 1124 650 1156 695 q 1026 583 1092 606 q 1168 494 1120 561 q 1217 321 1217 427 q 1100 65 1217 150 q 751 -20 984 -20 q 631 -11 690 -20 q 518 12 572 -3 l 518 256 q 602 240 564 245 q 675 236 641 236 q 803 263 761 236 q 845 347 845 290 q 793 436 845 411 q 592 461 742 461 l 550 461 l 550 644 l 613 644 q 734 662 698 644 q 770 724 770 681 q 739 783 770 764 q 643 803 709 803 q 542 791 583 803 q 481 758 502 780 q 450 688 459 734 q 441 544 441 642 l 441 0 l 92 0 "},"s":{"x_min":34.21875,"x_max":1117,"ha":1164,"o":"m 34 249 l 458 249 q 493 190 462 208 q 596 173 525 173 q 685 186 655 173 q 716 225 716 199 q 557 286 716 271 q 509 290 526 289 l 507 290 q 162 355 252 315 q 82 428 110 378 q 54 544 54 477 q 177 741 54 679 q 570 804 300 804 q 950 740 825 804 q 1083 542 1074 676 l 684 542 q 647 599 680 581 q 541 617 614 617 q 450 603 479 617 q 422 562 422 590 q 558 507 422 517 q 601 502 586 504 l 635 500 q 954 460 908 475 q 1080 382 1043 428 q 1117 255 1117 335 q 985 40 1117 106 q 555 -26 854 -26 q 164 40 289 -26 q 34 249 40 106 "},"?":{"x_min":21,"x_max":1145,"ha":1183,"o":"m 399 0 l 399 321 l 763 321 l 763 0 l 399 0 m 399 389 l 399 405 q 432 516 399 473 q 542 591 465 559 q 622 619 572 603 q 688 644 673 634 q 725 679 713 660 q 737 723 737 698 q 700 784 737 763 q 594 806 663 806 q 457 766 503 806 q 412 649 412 727 l 412 643 l 21 643 q 154 938 21 845 q 579 1031 287 1031 q 1006 956 868 1031 q 1145 727 1145 882 q 1100 587 1145 641 q 940 489 1055 534 q 882 467 920 481 q 761 389 779 431 l 399 389 "},"c":{"x_min":41,"x_max":1154,"ha":1198,"o":"m 1154 342 q 995 66 1135 158 q 598 -26 856 -26 q 186 82 331 -26 q 41 388 41 190 q 186 694 41 585 q 598 804 331 804 q 984 719 846 804 q 1147 468 1122 634 l 774 468 q 711 548 753 521 q 606 575 669 575 q 460 525 513 575 q 408 389 408 476 q 459 256 408 305 q 598 207 511 207 q 720 243 671 207 q 783 342 770 279 l 1154 342 "},"¶":{"x_min":7,"x_max":689,"ha":694,"o":"m 689 907 l 620 907 l 620 0 l 482 0 l 482 907 l 387 907 l 387 0 l 249 0 l 249 532 q 73 601 139 537 q 7 766 7 666 q 78 937 7 872 q 269 1003 150 1003 l 689 1003 l 689 907 "},"•":{"x_min":208,"x_max":609,"ha":819,"o":"m 208 516 q 266 657 208 599 q 409 716 325 716 q 550 657 491 716 q 609 516 609 598 q 549 374 609 433 q 407 315 490 315 q 266 373 324 315 q 208 516 208 432 "},"(":{"x_min":47,"x_max":680,"ha":714,"o":"m 680 -286 q 660 -287 673 -286 q 640 -288 646 -288 q 198 -122 349 -288 q 47 361 47 43 q 198 846 47 680 q 640 1013 350 1013 q 660 1012 646 1013 q 680 1011 673 1011 l 680 730 l 659 730 q 467 639 530 730 q 405 361 405 548 q 467 85 405 175 q 659 -5 529 -5 l 680 -5 l 680 -286 "},"◊":{"x_min":4,"x_max":682,"ha":686,"o":"m 343 955 l 81 398 l 343 -158 l 604 398 l 343 955 m 343 1121 l 682 398 l 343 -324 l 4 398 l 343 1121 "},"­":{"x_min":86,"x_max":590,"ha":675,"o":"m 86 253 l 86 525 l 590 525 l 590 253 l 86 253 "},":":{"x_min":123,"x_max":487,"ha":611,"o":"m 123 457 l 123 778 l 487 778 l 487 457 l 123 457 m 123 0 l 123 321 l 487 321 l 487 0 l 123 0 "},"Û":{"x_min":110,"x_max":1295,"ha":1404,"o":"m 499 1003 l 499 512 q 544 302 499 361 q 703 244 590 244 q 860 302 815 244 q 906 512 906 360 l 906 1003 l 1295 1003 l 1295 475 q 1152 93 1295 214 q 702 -28 1010 -28 q 253 94 396 -28 q 110 475 110 216 l 110 1003 l 499 1003 m 901 1317 l 1115 1104 l 771 1104 l 702 1204 l 633 1104 l 290 1104 l 510 1317 l 901 1317 "},"V":{"x_min":-61,"x_max":1249,"ha":1187,"o":"m 381 0 l -61 1003 l 377 1003 l 590 331 l 814 1003 l 1249 1003 l 787 0 l 381 0 "}," ":{"x_min":0,"x_max":0,"ha":1328},"@":{"x_min":47,"x_max":1341,"ha":1389,"o":"m 841 617 l 874 673 l 1038 673 l 932 248 q 930 235 931 240 q 929 227 929 231 q 938 203 929 211 q 961 194 946 194 q 1118 290 1048 194 q 1188 515 1188 387 q 1069 773 1188 675 q 756 872 951 872 q 575 847 659 872 q 423 776 491 823 q 261 593 318 703 q 205 356 205 484 q 340 38 205 156 q 703 -80 475 -80 q 911 -48 811 -80 q 1100 47 1011 -16 l 1178 -61 q 946 -184 1067 -144 q 688 -224 825 -224 q 447 -187 560 -224 q 248 -80 334 -150 q 97 108 147 0 q 47 352 47 216 q 84 577 47 471 q 195 770 122 684 q 440 954 296 890 q 753 1019 584 1019 q 1178 879 1015 1019 q 1341 517 1341 739 q 1294 304 1341 401 q 1161 140 1248 207 q 1057 83 1114 102 q 939 63 1001 63 q 826 89 865 63 q 781 167 787 115 q 694 89 741 113 q 585 65 648 65 q 410 124 469 65 q 352 302 352 184 q 449 581 352 469 q 691 693 546 693 q 779 673 741 693 q 841 617 818 654 m 763 334 l 795 466 q 766 537 790 512 q 704 563 742 563 q 591 484 640 563 q 543 298 543 405 q 563 222 543 249 q 622 196 584 196 q 709 233 671 196 q 763 334 748 271 "},"¾":{"x_min":25,"x_max":1962,"ha":1995,"o":"m 1636 218 l 1636 422 l 1410 218 l 1636 218 m 1632 0 l 1632 86 l 1188 86 l 1188 227 l 1540 547 l 1851 547 l 1851 221 l 1962 221 l 1962 86 l 1851 86 l 1851 0 l 1632 0 m 507 -26 l 1326 1003 l 1487 1003 l 666 -26 l 507 -26 m 25 615 l 278 615 q 321 571 288 585 q 417 558 355 558 q 512 570 481 558 q 543 606 543 582 q 517 643 543 632 q 426 654 491 654 l 290 654 l 290 783 l 414 783 q 504 791 482 783 q 526 818 526 799 q 497 850 526 839 q 412 861 469 861 q 342 853 366 861 q 314 832 318 846 l 47 832 q 140 952 53 914 q 408 990 226 990 q 695 953 604 990 q 786 838 786 917 q 758 765 786 793 q 677 725 731 736 q 772 683 740 715 q 804 599 804 652 q 709 460 804 505 q 420 415 615 415 q 123 462 216 415 q 25 615 30 509 "},"i":{"x_min":104,"x_max":458,"ha":561,"o":"m 104 0 l 104 778 l 458 778 l 458 0 l 104 0 m 104 842 l 104 1039 l 458 1039 l 458 842 l 104 842 "},"≤":{"x_min":172,"x_max":986,"ha":1157,"o":"m 986 160 l 986 -24 l 172 -24 l 172 160 l 986 160 m 984 677 l 507 536 l 984 394 l 984 204 l 172 455 l 172 616 l 984 869 l 984 677 "},"m":{"x_min":92,"x_max":1668,"ha":1756,"o":"m 92 0 l 92 778 l 437 778 l 437 697 q 578 769 506 746 q 735 793 651 793 q 893 759 829 793 q 1002 653 956 725 q 1163 759 1078 725 q 1349 793 1247 793 q 1591 706 1514 793 q 1668 430 1668 619 l 1668 0 l 1325 0 l 1325 365 q 1297 484 1325 450 q 1205 518 1270 518 q 1090 481 1131 518 q 1049 380 1049 444 l 1049 0 l 712 0 l 712 365 q 684 484 712 450 q 592 518 657 518 q 478 481 519 518 q 437 380 437 444 l 437 0 l 92 0 "},"ž":{"x_min":17,"x_max":937,"ha":981,"o":"m 17 0 l 17 205 l 443 541 l 62 541 l 62 778 l 937 778 l 937 574 l 518 248 l 927 248 l 927 0 l 17 0 m 291 880 l 78 1093 l 421 1093 l 490 993 l 559 1093 l 903 1093 l 682 880 l 291 880 "},"á":{"x_min":28,"x_max":1184,"ha":1238,"o":"m 797 362 q 612 327 743 335 q 554 323 574 325 q 450 300 477 316 q 423 252 423 284 q 455 195 423 215 q 548 175 488 175 q 731 221 663 175 q 800 343 800 267 q 799 355 800 352 q 797 362 799 359 m 799 106 q 642 6 734 38 q 409 -25 550 -25 q 123 38 219 -25 q 28 230 28 102 q 38 308 28 272 q 69 370 49 344 q 176 443 109 419 q 427 480 242 467 q 586 487 488 484 q 783 541 783 495 q 741 592 783 573 q 629 612 700 612 q 498 594 537 612 q 452 535 458 577 l 93 535 q 225 737 103 676 q 626 799 347 799 q 883 777 779 799 q 1041 714 988 756 q 1124 604 1100 668 q 1149 421 1149 540 l 1149 120 q 1156 53 1149 77 q 1184 16 1164 30 l 1184 0 l 821 0 q 806 49 812 23 q 799 106 800 76 m 457 880 l 584 1093 l 993 1093 l 787 880 l 457 880 "},"×":{"x_min":172,"x_max":1014,"ha":1157,"o":"m 592 546 l 881 835 l 1014 702 l 724 413 l 1014 124 l 881 -7 l 592 282 l 304 -7 l 172 124 l 461 413 l 172 702 l 304 835 l 592 546 "},"İ":{"x_min":110,"x_max":499,"ha":607,"o":"m 110 0 l 110 1003 l 499 1003 l 499 0 l 110 0 m 132 1112 l 132 1309 l 477 1309 l 477 1112 l 132 1112 "},"K":{"x_min":110,"x_max":1423,"ha":1357,"o":"m 110 0 l 110 1003 l 499 1003 l 499 655 l 856 1003 l 1381 1003 l 962 640 l 1423 0 l 939 0 l 668 406 l 499 269 l 499 0 l 110 0 "},"7":{"x_min":63,"x_max":1290,"ha":1328,"o":"m 203 0 q 224 127 208 70 q 268 227 240 184 q 358 340 304 286 q 536 488 413 395 q 619 550 565 510 q 826 733 780 669 l 63 733 l 63 978 l 1290 978 q 1271 824 1289 895 q 1218 690 1254 753 q 990 449 1167 600 l 982 441 q 953 417 972 433 q 783 241 829 311 q 729 127 747 187 q 708 0 710 68 l 203 0 "},"¨":{"x_min":26,"x_max":666,"ha":694,"o":"m 389 887 l 389 1084 l 666 1084 l 666 887 l 389 887 m 26 887 l 26 1084 l 302 1084 l 302 887 l 26 887 "},"Y":{"x_min":-60,"x_max":1216,"ha":1157,"o":"m 380 0 l 380 283 l -60 1003 l 396 1003 l 577 590 l 769 1003 l 1216 1003 l 769 283 l 769 0 l 380 0 "},"E":{"x_min":110,"x_max":1206,"ha":1221,"o":"m 110 0 l 110 1003 l 1173 1003 l 1173 757 l 499 757 l 499 638 l 1045 638 l 1045 390 l 499 390 l 499 258 l 1206 258 l 1206 0 l 110 0 "},"Ô":{"x_min":52,"x_max":1402,"ha":1453,"o":"m 470 500 q 536 301 470 370 q 727 232 602 232 q 917 301 851 232 q 984 500 984 370 q 917 702 984 632 q 727 772 851 772 q 536 702 602 772 q 470 500 470 632 m 52 501 q 222 895 52 762 q 727 1029 392 1029 q 1231 895 1061 1029 q 1402 501 1402 762 q 1231 107 1402 240 q 727 -26 1061 -26 q 222 107 392 -26 q 52 501 52 240 m 925 1317 l 1139 1104 l 795 1104 l 726 1204 l 657 1104 l 314 1104 l 534 1317 l 925 1317 "},"Ï":{"x_min":-17,"x_max":623,"ha":607,"o":"m 110 0 l 110 1003 l 499 1003 l 499 0 l 110 0 m 346 1112 l 346 1309 l 623 1309 l 623 1112 l 346 1112 m -17 1112 l -17 1309 l 259 1309 l 259 1112 l -17 1112 "},"‹":{"x_min":93,"x_max":435,"ha":530,"o":"m 93 481 l 435 751 l 435 468 l 325 388 l 435 308 l 435 26 l 93 295 l 93 481 "},"±":{"x_min":173,"x_max":985,"ha":1157,"o":"m 985 156 l 985 -28 l 173 -28 l 173 156 l 985 156 m 674 855 l 674 645 l 985 645 l 985 461 l 674 461 l 674 251 l 484 251 l 484 461 l 173 461 l 173 645 l 484 645 l 484 855 l 674 855 "},"ì":{"x_min":-78,"x_max":458,"ha":561,"o":"m 104 0 l 104 778 l 458 778 l 458 0 l 104 0 m 127 880 l -78 1093 l 330 1093 l 458 880 l 127 880 "},"|":{"x_min":253,"x_max":444,"ha":694,"o":"m 444 1061 l 444 -328 l 253 -328 l 253 1061 l 444 1061 "},"§":{"x_min":26,"x_max":1293,"ha":1320,"o":"m 957 304 q 961 319 958 309 q 970 357 970 350 q 950 401 970 385 q 885 425 931 416 l 435 512 q 427 514 433 512 q 362 530 388 520 q 351 502 354 515 q 348 476 348 488 q 366 434 348 448 q 435 409 384 420 l 885 322 q 923 314 906 318 q 957 304 940 309 m 94 90 l 468 90 q 521 20 475 43 q 651 -3 566 -3 q 785 9 742 -3 q 828 48 828 22 q 747 92 828 76 q 733 95 738 94 l 457 149 q 289 186 351 170 q 190 218 227 202 q 68 311 110 249 q 26 458 26 372 q 61 587 26 535 q 166 662 97 639 q 136 714 145 687 q 127 775 127 741 q 250 966 127 903 q 625 1029 373 1029 q 1030 957 892 1029 q 1178 742 1168 885 l 806 742 q 761 805 799 787 q 626 823 723 823 q 520 812 551 823 q 490 775 490 801 q 505 749 490 758 q 570 731 521 740 l 899 670 q 927 665 908 668 q 1133 616 1071 637 q 1252 532 1211 589 q 1293 393 1293 475 q 1260 263 1293 312 q 1161 193 1227 213 q 1204 134 1190 167 q 1219 58 1219 101 q 1083 -147 1219 -81 q 660 -214 947 -214 q 252 -136 396 -214 q 94 90 108 -59 "},"q":{"x_min":43,"x_max":1111,"ha":1206,"o":"m 409 388 q 457 263 409 310 q 586 216 505 216 q 715 263 667 216 q 764 388 764 310 q 715 514 764 467 q 586 561 667 561 q 457 514 505 561 q 409 388 409 467 m 764 63 q 630 0 700 21 q 475 -20 559 -20 q 160 90 277 -20 q 43 388 43 201 q 158 686 43 574 q 469 798 274 798 q 639 774 563 798 q 778 702 715 750 l 780 778 l 1111 778 l 1111 -252 l 764 -252 l 764 63 "},"b":{"x_min":94,"x_max":1162,"ha":1206,"o":"m 441 388 q 489 263 441 310 q 618 216 538 216 q 748 263 700 216 q 797 388 797 310 q 748 514 797 467 q 618 561 700 561 q 489 514 538 561 q 441 388 441 467 m 94 0 l 94 1011 l 441 1011 l 441 714 q 574 777 504 756 q 729 798 645 798 q 1045 687 928 798 q 1162 388 1162 576 q 1046 91 1162 203 q 735 -20 930 -20 q 567 4 643 -20 q 427 76 490 28 l 424 0 l 94 0 "},"®":{"x_min":69,"x_max":1088,"ha":1157,"o":"m 558 682 l 532 682 l 532 551 l 568 551 q 627 567 607 551 q 648 617 648 584 q 626 666 648 650 q 558 682 604 682 m 584 790 q 764 748 702 790 q 826 627 826 707 q 796 536 826 574 q 715 479 767 497 l 835 239 l 646 239 l 548 450 l 532 450 l 532 239 l 358 239 l 358 790 l 584 790 m 984 502 q 953 657 984 583 q 866 788 922 731 q 734 877 807 847 q 578 908 661 908 q 422 878 495 908 q 293 791 349 849 q 204 657 235 732 q 173 502 173 583 q 203 348 173 421 q 292 217 234 274 q 423 127 350 158 q 578 97 497 97 q 733 128 659 97 q 867 218 807 159 q 954 346 925 274 q 984 502 984 419 m 577 1012 q 775 974 682 1012 q 940 863 868 936 q 1049 698 1011 792 q 1088 502 1088 605 q 1050 306 1088 397 q 940 145 1012 215 q 771 32 865 72 q 577 -7 677 -7 q 384 31 476 -7 q 219 144 293 70 q 107 308 146 216 q 69 502 69 401 q 107 698 69 604 q 220 866 146 791 q 382 974 290 937 q 577 1012 473 1012 "},"L":{"x_min":110,"x_max":1111,"ha":1124,"o":"m 110 0 l 110 1003 l 499 1003 l 499 275 l 1111 275 l 1111 0 l 110 0 "}," ":{"x_min":0,"x_max":0,"ha":664},"∑":{"x_min":40,"x_max":1040,"ha":1074,"o":"m 54 999 l 981 999 l 981 760 l 454 760 l 833 382 l 466 -25 l 1040 -25 l 1040 -266 l 40 -266 l 40 -130 l 490 369 l 54 796 l 54 999 "},"À":{"x_min":-40,"x_max":1293,"ha":1254,"o":"m 503 346 l 752 346 l 631 698 l 503 346 m -40 0 l 394 1003 l 887 1003 l 1293 0 l 871 0 l 838 98 l 412 98 l 376 0 l -40 0 m 486 1105 l 281 1318 l 689 1318 l 817 1105 l 486 1105 "},"+":{"x_min":173,"x_max":985,"ha":1157,"o":"m 674 828 l 674 507 l 985 507 l 985 322 l 674 322 l 674 0 l 484 0 l 484 322 l 173 322 l 173 507 l 484 507 l 484 828 l 674 828 "},"½":{"x_min":215.328125,"x_max":1956,"ha":1995,"o":"m 1173 0 q 1250 202 1179 131 q 1483 307 1322 272 q 1572 324 1517 314 q 1699 379 1699 346 q 1672 412 1699 400 q 1594 424 1645 424 q 1492 405 1525 424 q 1460 348 1460 387 l 1460 347 l 1196 347 q 1295 507 1201 454 q 1574 561 1389 561 q 1860 516 1764 561 q 1956 381 1956 471 q 1907 274 1956 313 q 1747 213 1859 235 q 1630 193 1705 205 q 1439 139 1474 168 l 1943 139 l 1943 0 l 1173 0 m 507 -26 l 1326 1003 l 1487 1003 l 666 -26 l 507 -26 m 335 430 l 335 783 q 273 768 303 773 q 216 762 244 763 l 215 900 q 313 928 273 909 q 377 977 353 947 l 553 977 l 553 430 l 335 430 "},"Ë":{"x_min":110,"x_max":1206,"ha":1221,"o":"m 110 0 l 110 1003 l 1173 1003 l 1173 757 l 499 757 l 499 638 l 1045 638 l 1045 390 l 499 390 l 499 258 l 1206 258 l 1206 0 l 110 0 m 682 1112 l 682 1309 l 959 1309 l 959 1112 l 682 1112 m 319 1112 l 319 1309 l 595 1309 l 595 1112 l 319 1112 "},"'":{"x_min":46,"x_max":221,"ha":267,"o":"m 221 977 l 221 595 l 46 595 l 46 977 l 221 977 "},"Š":{"x_min":46.96875,"x_max":1312,"ha":1360,"o":"m 46 305 l 517 305 q 568 243 523 265 q 692 221 613 221 q 810 238 771 221 q 849 292 849 256 q 815 343 849 324 q 710 372 781 363 l 420 408 q 149 504 240 429 q 58 706 58 580 q 196 951 58 874 q 636 1029 334 1029 q 1102 951 949 1029 q 1267 711 1254 874 l 814 711 q 757 782 806 758 q 618 807 708 807 q 516 788 553 807 q 479 740 479 770 q 507 696 479 711 q 627 668 536 681 l 981 618 q 1229 522 1147 595 q 1312 325 1312 449 q 1147 55 1312 141 q 630 -31 983 -31 q 199 55 349 -31 q 46 305 49 142 m 482 1105 l 269 1318 l 612 1318 l 681 1218 l 750 1318 l 1094 1318 l 873 1105 l 482 1105 "},"˛":{"x_min":176,"x_max":520,"ha":694,"o":"m 462 0 q 393 -38 415 -20 q 371 -73 371 -56 q 385 -95 371 -88 q 433 -103 400 -103 l 520 -103 l 520 -298 l 447 -298 q 230 -270 284 -298 q 176 -173 176 -243 q 219 -82 176 -123 q 359 0 262 -41 l 462 0 "},"ð":{"x_min":41,"x_max":1024,"ha":1068,"o":"m 620 684 q 588 734 605 710 q 551 782 571 758 l 253 717 l 234 808 l 479 863 q 462 882 471 873 q 436 910 453 892 l 577 1044 q 637 993 600 1027 q 720 910 674 958 l 954 959 l 977 870 l 793 831 q 967 579 911 698 q 1024 347 1024 461 q 895 72 1024 170 q 532 -26 767 -26 q 169 72 298 -26 q 41 347 41 170 q 167 601 41 513 q 534 690 294 690 q 609 685 557 690 q 620 684 616 684 m 372 347 q 415 233 372 275 q 532 191 459 191 q 649 233 605 191 q 694 347 694 275 q 649 462 694 419 q 532 505 605 505 q 415 462 459 505 q 372 347 372 419 "},"ş":{"x_min":34.21875,"x_max":1117,"ha":1164,"o":"m 34 249 l 458 249 q 493 190 462 208 q 596 173 525 173 q 685 186 655 173 q 716 225 716 199 q 557 286 716 271 q 509 290 526 289 l 507 290 q 162 355 252 315 q 82 428 110 378 q 54 544 54 477 q 177 741 54 679 q 570 804 300 804 q 950 740 825 804 q 1083 542 1074 676 l 684 542 q 647 599 680 581 q 541 617 614 617 q 450 603 479 617 q 422 562 422 590 q 558 507 422 517 q 601 502 586 504 l 635 500 q 954 460 908 475 q 1080 382 1043 428 q 1117 255 1117 335 q 985 40 1117 106 q 555 -26 854 -26 q 164 40 289 -26 q 34 249 40 106 m 549 0 l 650 0 l 589 -86 q 633 -77 614 -80 q 669 -75 653 -75 q 769 -107 733 -75 q 806 -197 806 -140 q 757 -295 806 -262 q 612 -328 708 -328 q 501 -315 563 -328 q 367 -277 439 -302 l 399 -204 q 489 -231 448 -222 q 554 -241 529 -241 q 603 -227 585 -241 q 621 -191 621 -214 q 607 -164 621 -176 q 577 -151 593 -151 q 553 -155 565 -151 q 529 -169 542 -160 l 477 -134 l 549 0 "},"ı":{"x_min":104,"x_max":458,"ha":561,"o":"m 104 0 l 104 778 l 458 778 l 458 0 l 104 0 "},"Ć":{"x_min":52,"x_max":1394,"ha":1428,"o":"m 947 581 q 881 723 937 674 q 727 772 824 772 q 536 702 602 772 q 470 500 470 632 q 536 301 470 370 q 727 232 602 232 q 873 273 817 232 q 946 395 928 314 l 1394 395 q 1194 80 1363 186 q 727 -26 1024 -26 q 222 107 392 -26 q 52 501 52 240 q 222 895 52 762 q 726 1029 392 1029 q 1209 913 1038 1029 q 1391 581 1380 797 l 947 581 m 538 1105 l 665 1318 l 1074 1318 l 868 1105 l 538 1105 "},"ä":{"x_min":28,"x_max":1184,"ha":1238,"o":"m 797 362 q 612 327 743 335 q 554 323 574 325 q 450 300 477 316 q 423 252 423 284 q 455 195 423 215 q 548 175 488 175 q 731 221 663 175 q 800 343 800 267 q 799 355 800 352 q 797 362 799 359 m 799 106 q 642 6 734 38 q 409 -25 550 -25 q 123 38 219 -25 q 28 230 28 102 q 38 308 28 272 q 69 370 49 344 q 176 443 109 419 q 427 480 242 467 q 586 487 488 484 q 783 541 783 495 q 741 592 783 573 q 629 612 700 612 q 498 594 537 612 q 452 535 458 577 l 93 535 q 225 737 103 676 q 626 799 347 799 q 883 777 779 799 q 1041 714 988 756 q 1124 604 1100 668 q 1149 421 1149 540 l 1149 120 q 1156 53 1149 77 q 1184 16 1164 30 l 1184 0 l 821 0 q 806 49 812 23 q 799 106 800 76 m 675 887 l 675 1084 l 952 1084 l 952 887 l 675 887 m 312 887 l 312 1084 l 588 1084 l 588 887 l 312 887 "},"¹":{"x_min":225,"x_max":579,"ha":876,"o":"m 350 390 l 350 769 q 287 754 318 759 q 225 747 256 749 l 225 896 q 327 925 285 905 q 396 977 369 945 l 579 977 l 579 390 l 350 390 "},"£":{"x_min":139,"x_max":1257,"ha":1328,"o":"m 255 -20 l 139 229 q 203 300 182 263 q 224 379 224 337 q 223 397 224 388 q 220 418 222 407 l 139 418 l 139 585 l 206 585 q 202 621 203 602 q 201 661 201 641 q 326 915 201 831 q 707 999 452 999 q 1114 914 984 999 q 1246 651 1244 830 l 841 651 q 807 723 837 698 q 726 749 778 749 q 643 720 671 749 q 615 637 615 692 q 617 599 615 627 q 617 585 617 589 l 873 585 l 873 418 l 612 418 q 599 363 612 391 q 560 302 587 336 q 614 309 588 307 q 665 312 640 312 q 811 295 714 312 q 955 278 908 278 q 1072 296 1020 278 q 1176 357 1124 315 l 1257 85 q 1111 4 1188 31 q 943 -22 1034 -22 q 870 -17 909 -22 q 771 -3 831 -13 q 618 27 721 3 q 469 51 514 51 q 366 33 420 51 q 255 -20 313 15 "},"W":{"x_min":-83,"x_max":1787,"ha":1703,"o":"m 259 0 l -83 1003 l 335 1003 l 508 302 l 694 1003 l 1015 1003 l 1203 302 l 1367 1003 l 1787 1003 l 1442 0 l 1019 0 l 850 648 l 677 0 l 259 0 "},"Ğ":{"x_min":52,"x_max":1383,"ha":1459,"o":"m 1165 89 q 991 1 1097 29 q 726 -26 885 -26 q 222 107 392 -26 q 52 501 52 240 q 222 895 52 762 q 726 1029 392 1029 q 1178 933 1008 1029 q 1370 668 1347 838 l 944 668 q 861 758 912 728 q 737 788 810 788 q 543 710 616 788 q 470 501 470 632 q 542 295 470 368 q 743 222 614 222 q 905 257 840 222 q 984 353 969 292 l 823 353 l 823 570 l 1383 570 l 1383 0 l 1207 0 l 1165 89 m 408 1325 l 651 1325 l 651 1316 q 672 1269 651 1286 q 730 1253 693 1253 q 789 1269 769 1253 q 809 1320 809 1286 l 809 1325 l 1052 1325 q 955 1160 1040 1219 q 730 1102 870 1102 q 504 1160 589 1102 q 408 1325 419 1219 "},"v":{"x_min":-29,"x_max":1079,"ha":1061,"o":"m 333 0 l -29 778 l 370 778 l 494 430 q 512 371 504 402 q 526 308 520 341 q 540 364 532 336 q 559 423 548 392 l 683 778 l 1079 778 l 716 0 l 333 0 "},">":{"x_min":179,"x_max":978,"ha":1157,"o":"m 978 509 l 978 319 l 179 -11 l 179 191 l 722 413 l 179 635 l 179 840 l 978 509 "},"û":{"x_min":89,"x_max":1072,"ha":1164,"o":"m 725 80 q 580 7 655 31 q 417 -16 504 -16 q 167 71 246 -16 q 89 346 89 158 l 89 778 l 436 778 l 436 411 q 463 291 436 324 q 560 259 491 259 q 681 295 637 259 q 725 396 725 332 l 725 778 l 1072 778 l 1072 0 l 725 0 l 725 80 m 781 1092 l 995 879 l 651 879 l 582 979 l 513 879 l 170 879 l 390 1092 l 781 1092 "},"Ð":{"x_min":6,"x_max":1397,"ha":1453,"o":"m 504 755 l 504 599 l 736 599 l 736 438 l 504 438 l 504 267 l 698 267 q 914 323 849 267 q 979 511 979 380 q 913 697 979 640 q 698 755 847 755 l 504 755 m 115 1004 l 759 1004 q 1234 875 1071 1004 q 1397 500 1397 747 q 1234 127 1397 255 q 759 0 1072 0 l 115 0 l 115 438 l 6 438 l 6 599 l 115 599 l 115 1004 "},"r":{"x_min":96,"x_max":920,"ha":951,"o":"m 96 0 l 96 778 l 440 778 l 444 718 q 537 777 483 757 q 660 798 592 798 q 857 725 794 798 q 920 494 920 652 l 920 427 l 613 427 l 613 432 q 592 520 613 491 q 530 549 572 549 q 467 515 486 549 q 449 401 449 482 l 449 0 l 96 0 "},"Č":{"x_min":52,"x_max":1394,"ha":1428,"o":"m 947 581 q 881 723 937 674 q 727 772 824 772 q 536 702 602 772 q 470 500 470 632 q 536 301 470 370 q 727 232 602 232 q 873 273 817 232 q 946 395 928 314 l 1394 395 q 1194 80 1363 186 q 727 -26 1024 -26 q 222 107 392 -26 q 52 501 52 240 q 222 895 52 762 q 726 1029 392 1029 q 1209 913 1038 1029 q 1391 581 1380 797 l 947 581 m 515 1105 l 302 1318 l 645 1318 l 714 1218 l 783 1318 l 1127 1318 l 906 1105 l 515 1105 "},"x":{"x_min":-71,"x_max":1126,"ha":1071,"o":"m -71 0 l 290 408 l -36 778 l 398 778 l 492 632 q 516 592 507 609 q 528 562 524 576 q 544 595 534 578 q 566 630 553 612 l 670 778 l 1097 778 l 768 409 l 1126 0 l 678 0 l 569 158 q 542 201 550 185 q 530 231 534 216 q 514 195 522 210 q 496 166 506 179 l 377 0 l -71 0 "},"è":{"x_min":41,"x_max":1165,"ha":1204,"o":"m 396 474 l 808 474 q 749 573 800 538 q 613 609 698 609 q 465 574 521 609 q 396 474 409 539 m 1158 237 q 975 40 1118 107 q 594 -26 832 -26 q 185 82 329 -26 q 41 388 41 190 q 185 695 41 587 q 594 804 329 804 q 1020 681 875 804 q 1165 321 1165 559 l 1165 308 l 413 308 q 465 211 413 245 q 614 177 518 177 q 719 192 677 177 q 780 237 761 207 l 1158 237 m 449 880 l 244 1093 l 652 1093 l 780 880 l 449 880 "},"Ø":{"x_min":52,"x_max":1402,"ha":1453,"o":"m 486 383 l 897 723 q 825 759 867 747 q 727 772 783 772 q 536 703 603 772 q 470 507 470 634 q 474 448 470 479 q 486 383 478 418 m 966 614 l 563 276 q 633 242 594 253 q 727 232 673 232 q 919 302 852 232 q 986 507 986 372 q 981 564 986 537 q 966 614 976 591 m 191 136 q 86 291 120 201 q 52 501 52 381 q 222 895 52 762 q 727 1029 392 1029 q 976 1007 868 1029 q 1157 942 1084 985 l 1296 1058 l 1380 961 l 1264 864 q 1368 709 1334 799 q 1402 501 1402 620 q 1231 107 1402 240 q 727 -26 1061 -26 q 485 -5 590 -26 q 301 57 379 15 l 136 -82 l 52 16 l 191 136 "},"÷":{"x_min":172,"x_max":983,"ha":1157,"o":"m 578 251 q 664 214 628 251 q 701 127 701 177 q 664 40 701 77 q 576 4 628 4 q 489 39 525 4 q 454 127 454 75 q 490 215 454 179 q 578 251 526 251 m 983 507 l 983 322 l 172 322 l 172 507 l 983 507 m 578 825 q 664 787 628 825 q 701 700 701 750 q 664 614 701 650 q 576 578 628 578 q 489 613 525 578 q 454 700 454 649 q 490 788 454 752 q 578 825 526 825 "},"h":{"x_min":94,"x_max":1079,"ha":1166,"o":"m 94 0 l 94 1011 l 441 1011 l 441 697 q 586 769 510 746 q 748 793 661 793 q 999 706 919 793 q 1079 430 1079 619 l 1079 0 l 732 0 l 732 365 q 703 484 732 451 q 605 518 675 518 q 484 481 528 518 q 441 380 441 444 l 441 0 l 94 0 "},".":{"x_min":150,"x_max":514,"ha":664,"o":"m 150 0 l 150 321 l 514 321 l 514 0 l 150 0 "},"f":{"x_min":0,"x_max":620,"ha":647,"o":"m 129 0 l 129 553 l 0 553 l 0 771 l 129 771 l 129 810 q 193 980 129 930 q 413 1031 258 1031 q 490 1029 444 1031 q 620 1023 537 1027 l 620 840 l 545 840 q 491 826 507 840 q 475 780 475 812 l 475 771 l 620 771 l 620 553 l 482 553 l 482 0 l 129 0 "},"“":{"x_min":107,"x_max":944,"ha":1051,"o":"m 944 812 l 944 490 l 581 490 l 581 702 q 599 837 581 791 q 663 917 618 883 q 764 979 706 951 q 897 1029 823 1007 l 928 900 q 861 865 882 885 q 839 812 840 844 l 944 812 m 471 812 l 471 490 l 107 490 l 107 702 q 126 836 107 790 q 190 917 145 882 q 291 979 233 951 q 425 1029 350 1007 l 456 900 q 387 864 408 885 q 365 812 366 843 l 471 812 "},"A":{"x_min":-40,"x_max":1293,"ha":1254,"o":"m 503 346 l 752 346 l 631 698 l 503 346 m -40 0 l 394 1003 l 887 1003 l 1293 0 l 871 0 l 838 98 l 412 98 l 376 0 l -40 0 "},"O":{"x_min":52,"x_max":1402,"ha":1453,"o":"m 470 500 q 536 301 470 370 q 727 232 602 232 q 917 301 851 232 q 984 500 984 370 q 917 702 984 632 q 727 772 851 772 q 536 702 602 772 q 470 500 470 632 m 52 501 q 222 895 52 762 q 727 1029 392 1029 q 1231 895 1061 1029 q 1402 501 1402 762 q 1231 107 1402 240 q 727 -26 1061 -26 q 222 107 392 -26 q 52 501 52 240 "},"π":{"x_min":28,"x_max":1154,"ha":1164,"o":"m 1126 574 l 1004 574 l 923 0 l 640 0 l 720 574 l 566 574 l 486 0 l 202 0 l 283 574 l 263 574 q 224 548 242 574 q 202 484 207 523 l 28 484 q 114 683 52 630 q 326 737 176 737 l 1154 737 l 1126 574 "},"‘":{"x_min":107,"x_max":471,"ha":579,"o":"m 471 812 l 471 490 l 107 490 l 107 702 q 126 836 107 790 q 190 917 145 882 q 291 979 233 951 q 425 1029 350 1007 l 456 900 q 387 864 408 885 q 365 812 366 843 l 471 812 "},"3":{"x_min":39,"x_max":1277,"ha":1328,"o":"m 39 331 l 442 331 q 511 254 457 278 q 663 230 564 230 q 813 251 765 230 q 862 317 862 272 q 821 382 862 363 q 677 401 781 401 l 462 401 l 462 632 l 660 632 q 801 645 767 632 q 836 695 836 659 q 790 752 836 733 q 655 771 745 771 q 543 758 581 771 q 499 718 506 745 l 76 718 q 223 934 86 865 q 649 1003 360 1003 q 1104 937 961 1003 q 1248 730 1248 872 q 1204 599 1248 650 q 1075 531 1161 549 q 1226 454 1176 511 q 1277 304 1277 397 q 1126 56 1277 137 q 668 -24 976 -24 q 196 60 344 -24 q 39 331 47 144 "},"9":{"x_min":52,"x_max":1266,"ha":1328,"o":"m 455 659 q 502 585 455 609 q 650 562 549 562 q 797 586 749 562 q 844 659 844 610 q 796 733 844 709 q 650 758 748 758 q 502 733 550 758 q 455 659 455 709 m 64 283 l 457 283 q 507 233 465 249 q 632 218 550 218 q 805 260 744 218 q 881 389 866 302 q 741 346 815 360 q 581 333 667 333 q 187 416 322 333 q 52 659 52 499 q 193 917 52 830 q 614 1004 334 1004 q 1111 881 956 1004 q 1266 490 1266 758 q 1113 99 1266 226 q 644 -28 960 -28 q 226 49 370 -28 q 64 283 83 126 "},"l":{"x_min":104,"x_max":458,"ha":561,"o":"m 104 0 l 104 1011 l 458 1011 l 458 0 l 104 0 "},"":{"x_min":0,"x_max":1085,"ha":1186,"o":"m 732 0 l 732 778 l 1085 778 l 1085 0 l 732 0 m 732 839 l 732 1039 l 1085 1039 l 1085 839 l 732 839 m 129 0 l 129 553 l 0 553 l 0 771 l 129 771 q 127 786 128 778 q 127 811 127 794 q 192 980 127 929 q 413 1031 257 1031 q 490 1029 444 1031 q 620 1023 537 1027 l 620 840 l 545 840 q 491 826 507 840 q 475 780 475 813 l 475 771 l 620 771 l 620 553 l 482 553 l 482 0 l 129 0 "},"4":{"x_min":50,"x_max":1279,"ha":1328,"o":"m 761 389 l 761 752 l 402 389 l 761 389 m 756 0 l 756 154 l 50 154 l 50 406 l 609 978 l 1103 978 l 1103 395 l 1279 395 l 1279 154 l 1103 154 l 1103 0 l 756 0 "},"Ü":{"x_min":110,"x_max":1295,"ha":1404,"o":"m 499 1003 l 499 512 q 544 302 499 361 q 703 244 590 244 q 860 302 815 244 q 906 512 906 360 l 906 1003 l 1295 1003 l 1295 475 q 1152 93 1295 214 q 702 -28 1010 -28 q 253 94 396 -28 q 110 475 110 216 l 110 1003 l 499 1003 m 744 1112 l 744 1309 l 1021 1309 l 1021 1112 l 744 1112 m 381 1112 l 381 1309 l 657 1309 l 657 1112 l 381 1112 "},"à":{"x_min":28,"x_max":1184,"ha":1238,"o":"m 797 362 q 612 327 743 335 q 554 323 574 325 q 450 300 477 316 q 423 252 423 284 q 455 195 423 215 q 548 175 488 175 q 731 221 663 175 q 800 343 800 267 q 799 355 800 352 q 797 362 799 359 m 799 106 q 642 6 734 38 q 409 -25 550 -25 q 123 38 219 -25 q 28 230 28 102 q 38 308 28 272 q 69 370 49 344 q 176 443 109 419 q 427 480 242 467 q 586 487 488 484 q 783 541 783 495 q 741 592 783 573 q 629 612 700 612 q 498 594 537 612 q 452 535 458 577 l 93 535 q 225 737 103 676 q 626 799 347 799 q 883 777 779 799 q 1041 714 988 756 q 1124 604 1100 668 q 1149 421 1149 540 l 1149 120 q 1156 53 1149 77 q 1184 16 1164 30 l 1184 0 l 821 0 q 806 49 812 23 q 799 106 800 76 m 479 880 l 274 1093 l 682 1093 l 810 880 l 479 880 "},"ó":{"x_min":41,"x_max":1134,"ha":1177,"o":"m 408 388 q 456 261 408 308 q 587 214 504 214 q 717 261 669 214 q 766 388 766 308 q 717 515 766 468 q 587 563 669 563 q 456 515 504 563 q 408 388 408 468 m 41 388 q 184 695 41 586 q 588 804 327 804 q 991 695 849 804 q 1134 388 1134 587 q 991 82 1134 190 q 588 -26 849 -26 q 184 82 327 -26 q 41 388 41 190 m 412 880 l 539 1093 l 948 1093 l 742 880 l 412 880 "}}}
